<svg width="447" height="447" viewBox="0 0 447 447" fill="none" xmlns="http://www.w3.org/2000/svg">
<path d="M222.9 422.1V422V421.9V421.8V421.7V421.6V421.5V421.4V421.3V421.2V421.1V421V420.9V420.8V420.7V420.6V420.5V420.4V420.3V420.2V420.1V420V419.9V419.8V419.7V419.6V419.5V419.4V419.3V419.2V419.1V419V418.9V418.8V418.7V418.6V418.5V418.4H223V418.3V418.2V418.1V418V417.9V417.8V417.7V417.6V417.5V417.4V417.3V417.2V417.1V417V416.9V416.8V416.7V416.6V416.5V416.4V416.3H223.1V416.2V416.1V416V415.9V415.8V415.7V415.6V415.5V415.4V415.3V415.2V415.1V415V414.9V414.8V414.7L223.2 414.6V414.5V414.4V414.3V414.2V414.1V414V413.9V413.8V413.7V413.6V413.5V413.4L223.3 413.3V413.2V413.1V413V412.9V412.8V412.7V412.6V412.5V412.4V412.3V412.2V412.1L223.4 412V411.9V411.8V411.7V411.6V411.5V411.4V411.3V411.2V411L223.5 410.9V410.8V410.7V410.5V410.4V410.3V410.1L223.6 410V409.8V409.7V409.6V409.4V409.2L223.7 409.1V408.9V408.8V408.6V408.4V408.2L223.8 408V407.9V407.7V407.5L223.9 407.3V407.1V406.8V406.6L224 406.4V406.2V405.9L224.1 405.7V405.4V405.2L224.2 404.9V404.6L224.3 404.4V404.1V403.8L224.4 403.5V403.2L224.5 402.8V402.5L224.6 402.1L224.7 401.8V401.4L224.8 401L224.9 400.6V400.2L225 399.8L225.1 399.3L225.2 398.9L225.3 398.4L225.4 397.9L225.5 397.3L225.6 396.8L225.7 396.2L225.8 395.6L225.9 395L226.1 394.4L226.2 393.7L226.4 393L226.5 392.3L226.7 391.5L226.9 390.7L227.1 389.8L227.3 388.9L227.6 388L227.9 386.9L228.1 385.9L228.4 384.8L228.8 383.6L229.1 382.3L229.5 380.9L230 379.5L230.4 377.9L231 376.3L231.5 374.5L232.2 372.6L232.9 370.6L233.7 368.4L234.5 366L235.5 363.4L236.6 360.5L237.8 357.4L239.1 354.1L240.6 350.4L242.3 346.3L244.2 341.9L246.4 337L248.7 331.7L251.4 325.8L254.2 319.3L257.4 312.3L260.7 304.7L264.2 296.5L267.6 287.8L271.1 278.6L274.2 269.1L277 259.3L279.2 249.4L280.8 239.3L281.6 229.1V219L280.8 208.8L279.2 198.7L277 188.8L274.2 179L271.1 169.5L267.6 160.3L264.2 151.6L260.7 143.4L257.4 135.8L254.2 128.8L251.4 122.3L248.7 116.4L246.4 111.1L244.2 106.2L242.3 101.8L240.6 97.7L239.1 94L237.8 90.7L236.6 87.6L235.5 84.7L234.5 82.1L233.7 79.7L232.9 77.5L232.2 75.5L231.5 73.6L231 71.8L230.4 70.2L230 68.6L229.5 67.2L229.1 65.8L228.8 64.5L228.4 63.3L228.1 62.2L227.9 61.2L227.6 60.1L227.3 59.2L227.1 58.3L226.9 57.4L226.7 56.6L226.5 55.8L226.4 55.1L226.2 54.4L226.1 53.7L225.9 53.1L225.8 52.5L225.7 51.9L225.6 51.3L225.5 50.8L225.4 50.2L225.3 49.7L225.2 49.2L225.1 48.8L225 48.3L224.9 47.9V47.5L224.8 47.1L224.7 46.7V46.3L224.6 46L224.5 45.6V45.3L224.4 44.9V44.6L224.3 44.3V44V43.7L224.2 43.5V43.2L224.1 42.9V42.7V42.4L224 42.2V41.9V41.7L223.9 41.5V41.3V41V40.8L223.8 40.6V40.4V40.2V40.1L223.7 39.9V39.7V39.5V39.3V39.2V39L223.6 38.9V38.7V38.5V38.4V38.3V38.1L223.5 38V37.8V37.7V37.6V37.4V37.3V37.2L223.4 37.1V36.9V36.8V36.7V36.6V36.5V36.4V36.3V36.2V36.1L223.3 36V35.9V35.8V35.7V35.6V35.5V35.4V35.3V35.2V35.1V35V34.9V34.8L223.2 34.7V34.6V34.5V34.4V34.3V34.2V34.1V34V33.9V33.8V33.7V33.6V33.5L223.1 33.4V33.3V33.2V33.1V33V32.9V32.8V32.7V32.6V32.5V32.4V32.3V32.2V32.1V32V31.9V31.8H223V31.7V31.6V31.5V31.4V31.3V31.2V31.1V31V30.9V30.8V30.7V30.6V30.5V30.4V30.3V30.2V30.1V30V29.9V29.8V29.7H222.9V29.6V29.5V29.4V29.3V29.2V29.1V29V28.9V28.8V28.7V28.6V28.5V28.4V28.3V28.2V28.1V28V27.9V27.8V27.7V27.6V27.5V27.4V27.3V27.2V27.1V27V26.9V26.8V26.7V26.6V26.5V26.4V26.3V26.2V26.1V26" stroke="white"/>
<path d="M222.9 422.1V422V421.9V421.8V421.7V421.6V421.5V421.4V421.3V421.2V421.1V421V420.9V420.8V420.7V420.6V420.5V420.4V420.3V420.2V420.1V420V419.9V419.8H223V419.7V419.6V419.5V419.4V419.3V419.2V419.1V419V418.9V418.8V418.7V418.6V418.5V418.4H223.1V418.3V418.2V418.1V418V417.9V417.8V417.7V417.6V417.5V417.4V417.3V417.2H223.2V417.1V417V416.9V416.8V416.7V416.6V416.5V416.4V416.3L223.3 416.2V416.1V416V415.9V415.8V415.7V415.6V415.5V415.4H223.4V415.3V415.2V415.1V415V414.9V414.8V414.7L223.5 414.6V414.5V414.4V414.3V414.2V414.1V414L223.6 413.9V413.8V413.7V413.6V413.5V413.4V413.3H223.7V413.2V413.1V413V412.9V412.8V412.7L223.8 412.6V412.5V412.4V412.3V412.2L223.9 412.1V412V411.9V411.8V411.6V411.5L224 411.4V411.3V411.2V411.1L224.1 410.9V410.8V410.7V410.6L224.2 410.4V410.3V410.2V410L224.3 409.9V409.7V409.6L224.4 409.4V409.3V409.1L224.5 408.9V408.8V408.6L224.6 408.4V408.3L224.7 408.1V407.9L224.8 407.7V407.5L224.9 407.3V407.1L225 406.9V406.6L225.1 406.4V406.2L225.2 405.9L225.3 405.7V405.4L225.4 405.2L225.5 404.9L225.6 404.6V404.3L225.7 404L225.8 403.7L225.9 403.4L226 403.1L226.1 402.8L226.2 402.4L226.3 402.1L226.4 401.7L226.6 401.3L226.7 400.9L226.8 400.5L227 400.1L227.1 399.6L227.3 399.2L227.4 398.7L227.6 398.2L227.8 397.7L228 397.1L228.2 396.5L228.5 396L228.7 395.3L229 394.7L229.2 394L229.5 393.3L229.8 392.5L230.2 391.7L230.5 390.9L230.9 390L231.4 389.1L231.8 388.1L232.3 387.1L232.8 386L233.4 384.8L234 383.6L234.7 382.2L235.5 380.8L236.3 379.3L237.2 377.6L238.2 375.9L239.2 373.9L240.4 371.9L241.8 369.6L243.2 367.2L244.9 364.6L246.7 361.7L248.7 358.5L251 355L253.5 351.2L256.4 347.1L259.5 342.5L263 337.4L266.9 332L271.1 326L275.6 319.6L280.4 312.8L285.4 305.6L290.5 298.1L295.6 290.5L300.5 282.9L305.1 275.3L309.3 267.8L313 260.6L316.1 253.5L318.6 246.7L320.5 240.1L321.8 233.6L322.4 227.2V220.9L321.8 214.5L320.5 208L318.6 201.4L316.1 194.6L313 187.5L309.3 180.3L305.1 172.8L300.5 165.2L295.6 157.6L290.5 150L285.4 142.5L280.4 135.3L275.6 128.5L271.1 122.1L266.9 116.1L263 110.7L259.5 105.6L256.4 101L253.5 96.9L251 93.1L248.7 89.6L246.7 86.4L244.9 83.5L243.2 80.9L241.8 78.5L240.4 76.2L239.2 74.2L238.2 72.2L237.2 70.5L236.3 68.8L235.5 67.3L234.7 65.9L234 64.5L233.4 63.3L232.8 62.1L232.3 61L231.8 60L231.4 59L230.9 58.1L230.5 57.2L230.2 56.4L229.8 55.6L229.5 54.8L229.2 54.1L229 53.4L228.7 52.8L228.5 52.1L228.2 51.6L228 51L227.8 50.4L227.6 49.9L227.4 49.4L227.3 48.9L227.1 48.5L227 48L226.8 47.6L226.7 47.2L226.6 46.8L226.4 46.4L226.3 46L226.2 45.7L226.1 45.3L226 45L225.9 44.7L225.8 44.4L225.7 44.1L225.6 43.8V43.5L225.5 43.2L225.4 42.9L225.3 42.7V42.4L225.2 42.2L225.1 41.9V41.7L225 41.5V41.2L224.9 41V40.8L224.8 40.6V40.4L224.7 40.2V40L224.6 39.8V39.7L224.5 39.5V39.3V39.2L224.4 39V38.8V38.7L224.3 38.5V38.4V38.2L224.2 38.1V37.9V37.8V37.7L224.1 37.5V37.4V37.3V37.2L224 37V36.9V36.8V36.7L223.9 36.6V36.5V36.3V36.2V36.1V36L223.8 35.9V35.8V35.7V35.6V35.5L223.7 35.4V35.3V35.2V35.1V35V34.9V34.8H223.6V34.7V34.6V34.5V34.4V34.3V34.2L223.5 34.1V34V33.9V33.8V33.7V33.6V33.5L223.4 33.4V33.3V33.2V33.1V33V32.9V32.8V32.7H223.3V32.6V32.5V32.4V32.3V32.2V32.1V32V31.9L223.2 31.8V31.7V31.6V31.5V31.4V31.3V31.2V31.1V31V30.9H223.1V30.8V30.7V30.6V30.5V30.4V30.3V30.2V30.1V30V29.9V29.8V29.7H223V29.6V29.5V29.4V29.3V29.2V29.1V29V28.9V28.8V28.7V28.6V28.5V28.4V28.3H222.9V28.2V28.1V28V27.9V27.8V27.7V27.6V27.5V27.4V27.3V27.2V27.1V27V26.9V26.8V26.7V26.6V26.5V26.4V26.3V26.2V26.1V26" stroke="white"/>
<path d="M222.9 422.1V422V421.9V421.8V421.7V421.6V421.5V421.4V421.3V421.2V421.1V421V420.9V420.8V420.7V420.6V420.5H223V420.4V420.3V420.2V420.1V420V419.9V419.8V419.7V419.6V419.5V419.4V419.3H223.1V419.2V419.1V419V418.9V418.8V418.7V418.6V418.5V418.4L223.2 418.3V418.2V418.1V418V417.9V417.8V417.7V417.6L223.3 417.5V417.4V417.3V417.2V417.1V417V416.9L223.4 416.8V416.7V416.6V416.5V416.4V416.3L223.5 416.2V416.1V416V415.9V415.8V415.7L223.6 415.6V415.5V415.4V415.3V415.2L223.7 415.1V415V414.9V414.8V414.7L223.8 414.6V414.5V414.4V414.3V414.2V414.1H223.9V414V413.9V413.8V413.7L224 413.6V413.5V413.4V413.3L224.1 413.2V413.1V413V412.9V412.8L224.2 412.7V412.6V412.5L224.3 412.4V412.3V412.2V412.1L224.4 412V411.8V411.7L224.5 411.6V411.5V411.4V411.3L224.6 411.2V411V410.9L224.7 410.8V410.7L224.8 410.5V410.4V410.3L224.9 410.1V410L225 409.8V409.7L225.1 409.5V409.4L225.2 409.2V409.1L225.3 408.9V408.7L225.4 408.5V408.4L225.5 408.2L225.6 408V407.8L225.7 407.6L225.8 407.4V407.2L225.9 407L226 406.7L226.1 406.5L226.2 406.3L226.3 406L226.4 405.8V405.5L226.6 405.3L226.7 405L226.8 404.7L226.9 404.4L227 404.1L227.1 403.8L227.3 403.5L227.4 403.2L227.6 402.8L227.7 402.5L227.9 402.1L228 401.7L228.2 401.3L228.4 400.9L228.6 400.5L228.8 400.1L229 399.6L229.3 399.1L229.5 398.6L229.8 398.1L230 397.5L230.3 397L230.7 396.4L231 395.8L231.3 395.1L231.7 394.4L232.1 393.7L232.5 392.9L233 392.1L233.5 391.3L234 390.4L234.6 389.4L235.2 388.4L235.9 387.3L236.6 386.2L237.4 384.9L238.3 383.6L239.2 382.2L240.3 380.7L241.4 379.1L242.6 377.3L244 375.4L245.5 373.3L247.1 371.1L248.9 368.6L251 366L253.2 363L255.7 359.8L258.5 356.2L261.7 352.4L265.1 348.1L268.9 343.4L273.1 338.3L277.7 332.7L282.7 326.7L288 320.4L293.5 313.7L299.2 306.8L304.9 299.9L310.5 292.9L315.9 286.1L321 279.5L325.6 273.2L329.8 267.3L333.6 261.6L336.8 256.4L339.6 251.4L341.9 246.7L343.8 242.3L345.3 238L346.4 233.9L347.2 229.9L347.5 226V222.1L347.2 218.2L346.4 214.2L345.3 210.1L343.8 205.8L341.9 201.4L339.6 196.7L336.8 191.7L333.6 186.5L329.8 180.8L325.6 174.9L321 168.6L315.9 162L310.5 155.2L304.9 148.2L299.2 141.3L293.5 134.4L288 127.7L282.7 121.4L277.7 115.4L273.1 109.8L268.9 104.7L265.1 100L261.7 95.7L258.5 91.9L255.7 88.3L253.2 85.1L251 82.1L248.9 79.5L247.1 77L245.5 74.8L244 72.7L242.6 70.8L241.4 69L240.3 67.4L239.2 65.9L238.3 64.5L237.4 63.2L236.6 61.9L235.9 60.8L235.2 59.7L234.6 58.7L234 57.7L233.5 56.8L233 56L232.5 55.2L232.1 54.4L231.7 53.7L231.3 53L231 52.3L230.7 51.7L230.3 51.1L230 50.6L229.8 50L229.5 49.5L229.3 49L229 48.5L228.8 48L228.6 47.6L228.4 47.2L228.2 46.8L228 46.4L227.9 46L227.7 45.6L227.6 45.3L227.4 44.9L227.3 44.6L227.1 44.3L227 44L226.9 43.7L226.8 43.4L226.7 43.1L226.6 42.8L226.4 42.6V42.3L226.3 42.1L226.2 41.8L226.1 41.6L226 41.4L225.9 41.1L225.8 40.9V40.7L225.7 40.5L225.6 40.3V40.1L225.5 39.9L225.4 39.7V39.6L225.3 39.4V39.2L225.2 39V38.9L225.1 38.7V38.6L225 38.4V38.3L224.9 38.1V38L224.8 37.8V37.7V37.6L224.7 37.4V37.3L224.6 37.2V37.1V36.9L224.5 36.8V36.7V36.6V36.5L224.4 36.4V36.3V36.1L224.3 36V35.9V35.8V35.7L224.2 35.6V35.5V35.4L224.1 35.3V35.2V35.1V35V34.9L224 34.8V34.7V34.6V34.5L223.9 34.4V34.3V34.2V34.1V34H223.8V33.9V33.8V33.7V33.6V33.5L223.7 33.4V33.3V33.2V33.1V33L223.6 32.9V32.8V32.7V32.6V32.5L223.5 32.4V32.3V32.2V32.1V32V31.9L223.4 31.8V31.7V31.6V31.5V31.4V31.3L223.3 31.2V31.1V31V30.9V30.8V30.7V30.6L223.2 30.5V30.4V30.3V30.2V30.1V30V29.9V29.8L223.1 29.7V29.6V29.5V29.4V29.3V29.2V29.1V29V28.9V28.8H223V28.7V28.6V28.5V28.4V28.3V28.2V28.1V28V27.9V27.8V27.7V27.6H222.9V27.5V27.4V27.3V27.2V27.1V27V26.9V26.8V26.7V26.6V26.5V26.4V26.3V26.2V26.1V26" stroke="white"/>
<path d="M222.9 422.1V422V421.9V421.8V421.7V421.6V421.5V421.4V421.3V421.2V421.1V421V420.9H223V420.8V420.7V420.6V420.5V420.4V420.3V420.2V420.1V420V419.9V419.8H223.1V419.7V419.6V419.5V419.4V419.3V419.2V419.1V419H223.2V418.9V418.8V418.7V418.6V418.5V418.4V418.3H223.3V418.2V418.1V418V417.9V417.8L223.4 417.7V417.6V417.5V417.4V417.3V417.2H223.5V417.1V417V416.9V416.8V416.7H223.6V416.6V416.5V416.4V416.3L223.7 416.2V416.1V416V415.9V415.8H223.8V415.7V415.6V415.5V415.4L223.9 415.3V415.2V415.1V415L224 414.9V414.8V414.7V414.6L224.1 414.5V414.4V414.3L224.2 414.2V414.1V414V413.9L224.3 413.8V413.7V413.6V413.5H224.4V413.4V413.3V413.2L224.5 413.1V413V412.9L224.6 412.8V412.7V412.6L224.7 412.5V412.4V412.3L224.8 412.2V412.1V412L224.9 411.9V411.8V411.7L225 411.6V411.5L225.1 411.3V411.2V411.1L225.2 411V410.8L225.3 410.7V410.6L225.4 410.4V410.3L225.5 410.2V410L225.6 409.9L225.7 409.7V409.6L225.8 409.4L225.9 409.3V409.1L226 408.9L226.1 408.7V408.6L226.2 408.4L226.3 408.2L226.4 408L226.5 407.8L226.6 407.6V407.4L226.7 407.2L226.8 406.9L226.9 406.7L227.1 406.5L227.2 406.2L227.3 406L227.4 405.7L227.5 405.5L227.7 405.2L227.8 404.9L228 404.6L228.1 404.3L228.3 404L228.4 403.7L228.6 403.4L228.8 403L229 402.7L229.2 402.3L229.4 401.9L229.6 401.5L229.9 401.1L230.1 400.7L230.4 400.2L230.6 399.7L230.9 399.2L231.2 398.7L231.6 398.2L231.9 397.6L232.3 397L232.7 396.4L233.1 395.8L233.5 395.1L234 394.4L234.5 393.6L235.1 392.8L235.6 392L236.3 391.1L236.9 390.1L237.7 389.1L238.4 388L239.3 386.8L240.2 385.6L241.2 384.2L242.3 382.8L243.5 381.2L244.8 379.6L246.3 377.7L247.9 375.8L249.6 373.6L251.5 371.3L253.7 368.7L256.1 365.9L258.7 362.8L261.6 359.3L264.9 355.6L268.5 351.5L272.5 346.9L276.8 342L281.6 336.6L286.8 330.8L292.3 324.7L298 318.2L303.9 311.6L309.9 304.9L315.8 298.2L321.5 291.7L326.9 285.4L331.9 279.5L336.5 274L340.7 268.8L344.4 264L347.7 259.5L350.6 255.4L353.2 251.6L355.4 248.1L357.2 244.7L358.8 241.6L360.2 238.7L361.2 235.8L362.1 233.1L362.7 230.5L363.1 227.9L363.3 225.3V222.8L363.1 220.2L362.7 217.6L362.1 215L361.2 212.3L360.2 209.4L358.8 206.5L357.2 203.4L355.4 200L353.2 196.5L350.6 192.7L347.7 188.6L344.4 184.1L340.7 179.3L336.5 174.1L331.9 168.6L326.9 162.7L321.5 156.4L315.8 149.9L309.9 143.2L303.9 136.5L298 129.9L292.3 123.4L286.8 117.3L281.6 111.5L276.8 106.1L272.5 101.2L268.5 96.6L264.9 92.5L261.6 88.8L258.7 85.3L256.1 82.2L253.7 79.4L251.5 76.8L249.6 74.5L247.9 72.3L246.3 70.4L244.8 68.5L243.5 66.9L242.3 65.3L241.2 63.9L240.2 62.5L239.3 61.3L238.4 60.1L237.7 59L236.9 58L236.3 57L235.6 56.1L235.1 55.3L234.5 54.5L234 53.7L233.5 53L233.1 52.3L232.7 51.7L232.3 51.1L231.9 50.5L231.6 49.9L231.2 49.4L230.9 48.9L230.6 48.4L230.4 47.9L230.1 47.4L229.9 47L229.6 46.6L229.4 46.2L229.2 45.8L229 45.4L228.8 45.1L228.6 44.7L228.4 44.4L228.3 44.1L228.1 43.8L228 43.5L227.8 43.2L227.7 42.9L227.5 42.6L227.4 42.4L227.3 42.1L227.2 41.9L227.1 41.6L226.9 41.4L226.8 41.2L226.7 40.9L226.6 40.7V40.5L226.5 40.3L226.4 40.1L226.3 39.9L226.2 39.7L226.1 39.5V39.4L226 39.2L225.9 39V38.8L225.8 38.7L225.7 38.5V38.4L225.6 38.2L225.5 38.1V37.9L225.4 37.8V37.7L225.3 37.5V37.4L225.2 37.3V37.1L225.1 37V36.9V36.8L225 36.6V36.5L224.9 36.4V36.3V36.2L224.8 36.1V36V35.9L224.7 35.8V35.7V35.6L224.6 35.5V35.4V35.3L224.5 35.2V35.1V35L224.4 34.9V34.8V34.7V34.6H224.3V34.5V34.4V34.3L224.2 34.2V34.1V34V33.9L224.1 33.8V33.7V33.6L224 33.5V33.4V33.3V33.2L223.9 33.1V33V32.9V32.8L223.8 32.7V32.6V32.5V32.4V32.3H223.7V32.2V32.1V32V31.9L223.6 31.8V31.7V31.6V31.5V31.4H223.5V31.3V31.2V31.1V31V30.9H223.4V30.8V30.7V30.6V30.5V30.4L223.3 30.3V30.2V30.1V30V29.9V29.8H223.2V29.7V29.6V29.5V29.4V29.3V29.2V29.1H223.1V29V28.9V28.8V28.7V28.6V28.5V28.4V28.3H223V28.2V28.1V28V27.9V27.8V27.7V27.6V27.5V27.4V27.3V27.2H222.9V27.1V27V26.9V26.8V26.7V26.6V26.5V26.4V26.3V26.2V26.1V26" stroke="white"/>
<path d="M222.9 422.1V422V421.9V421.8V421.7V421.6V421.5V421.4V421.3V421.2V421.1H223V421V420.9V420.8V420.7V420.6V420.5V420.4V420.3V420.2H223.1V420.1V420V419.9V419.8V419.7V419.6V419.5H223.2V419.4V419.3V419.2V419.1V419V418.9H223.3V418.8V418.7V418.6V418.5V418.4V418.3H223.4V418.2V418.1V418V417.9L223.5 417.8V417.7V417.6V417.5V417.4H223.6V417.3V417.2V417.1V417L223.7 416.9V416.8V416.7V416.6H223.8V416.5V416.4V416.3V416.2H223.9V416.1V416V415.9L224 415.8V415.7V415.6V415.5H224.1V415.4V415.3V415.2H224.2V415.1V415V414.9L224.3 414.8V414.7V414.6L224.4 414.5V414.4V414.3L224.5 414.2V414.1V414L224.6 413.9V413.8V413.7H224.7V413.6V413.5V413.4L224.8 413.3V413.2L224.9 413.1V413V412.9L225 412.8V412.7V412.6L225.1 412.5V412.4L225.2 412.3V412.2V412.1L225.3 412V411.9L225.4 411.8V411.7L225.5 411.6V411.5L225.6 411.3V411.2L225.7 411.1V411L225.8 410.8V410.7L225.9 410.6L226 410.4V410.3L226.1 410.2L226.2 410V409.9L226.3 409.7L226.4 409.5L226.5 409.4V409.2L226.6 409L226.7 408.9L226.8 408.7L226.9 408.5L227 408.3L227.1 408.1L227.2 407.9L227.3 407.7L227.4 407.5L227.5 407.3L227.6 407.1L227.8 406.8L227.9 406.6L228 406.4L228.2 406.1L228.3 405.8L228.5 405.6L228.6 405.3L228.8 405L229 404.7L229.1 404.4L229.3 404.1L229.5 403.8L229.7 403.4L229.9 403.1L230.2 402.7L230.4 402.3L230.7 401.9L230.9 401.5L231.2 401.1L231.5 400.6L231.8 400.1L232.2 399.7L232.5 399.1L232.9 398.6L233.3 398L233.7 397.4L234.1 396.8L234.6 396.2L235.1 395.5L235.6 394.7L236.2 394L236.8 393.1L237.5 392.3L238.2 391.4L239 390.4L239.8 389.3L240.7 388.2L241.6 387L242.7 385.7L243.8 384.3L245.1 382.8L246.4 381.2L247.9 379.4L249.6 377.5L251.4 375.4L253.4 373.1L255.6 370.6L258 367.8L260.7 364.8L263.7 361.4L267 357.8L270.7 353.7L274.8 349.3L279.2 344.4L284.1 339.1L289.4 333.4L295 327.4L300.8 321.1L306.9 314.6L313 308L319 301.5L324.8 295.1L330.4 289L335.6 283.2L340.4 277.8L344.7 272.9L348.7 268.3L352.2 264.1L355.4 260.2L358.2 256.6L360.6 253.4L362.8 250.3L364.8 247.6L366.5 245L367.9 242.5L369.2 240.2L370.3 238.1L371.2 236L372 234L372.7 232.1L373.2 230.3L373.5 228.5L373.8 226.7L373.9 224.9V223.2L373.8 221.4L373.5 219.6L373.2 217.8L372.7 216L372 214.1L371.2 212.1L370.3 210L369.2 207.9L367.9 205.6L366.5 203.1L364.8 200.5L362.8 197.8L360.6 194.7L358.2 191.5L355.4 187.9L352.2 184L348.7 179.8L344.7 175.2L340.4 170.3L335.6 164.9L330.4 159.1L324.8 153L319 146.6L313 140.1L306.9 133.5L300.8 127L295 120.7L289.4 114.7L284.1 109L279.2 103.7L274.8 98.8L270.7 94.4L267 90.3L263.7 86.7L260.7 83.3L258 80.3L255.6 77.5L253.4 75L251.4 72.7L249.6 70.6L247.9 68.7L246.4 66.9L245.1 65.3L243.8 63.8L242.7 62.4L241.6 61.1L240.7 59.9L239.8 58.8L239 57.7L238.2 56.7L237.5 55.8L236.8 55L236.2 54.1L235.6 53.4L235.1 52.6L234.6 51.9L234.1 51.3L233.7 50.7L233.3 50.1L232.9 49.5L232.5 49L232.2 48.4L231.8 48L231.5 47.5L231.2 47L230.9 46.6L230.7 46.2L230.4 45.8L230.2 45.4L229.9 45L229.7 44.7L229.5 44.3L229.3 44L229.1 43.7L229 43.4L228.8 43.1L228.6 42.8L228.5 42.5L228.3 42.3L228.2 42L228 41.7L227.9 41.5L227.8 41.3L227.6 41L227.5 40.8L227.4 40.6L227.3 40.4L227.2 40.2L227.1 40L227 39.8L226.9 39.6L226.8 39.4L226.7 39.2L226.6 39.1L226.5 38.9V38.7L226.4 38.6L226.3 38.4L226.2 38.2V38.1L226.1 37.9L226 37.8V37.7L225.9 37.5L225.8 37.4V37.3L225.7 37.1V37L225.6 36.9V36.8L225.5 36.6V36.5L225.4 36.4V36.3L225.3 36.2V36.1L225.2 36V35.9V35.8L225.1 35.7V35.6L225 35.5V35.4V35.3L224.9 35.2V35.1V35L224.8 34.9V34.8L224.7 34.7V34.6V34.5V34.4H224.6V34.3V34.2L224.5 34.1V34V33.9L224.4 33.8V33.7V33.6L224.3 33.5V33.4V33.3L224.2 33.2V33.1V33V32.9H224.1V32.8V32.7V32.6H224V32.5V32.4V32.3L223.9 32.2V32.1V32V31.9H223.8V31.8V31.7V31.6V31.5H223.7V31.4V31.3V31.2L223.6 31.1V31V30.9V30.8V30.7H223.5V30.6V30.5V30.4V30.3L223.4 30.2V30.1V30V29.9V29.8H223.3V29.7V29.6V29.5V29.4V29.3V29.2H223.2V29.1V29V28.9V28.8V28.7V28.6H223.1V28.5V28.4V28.3V28.2V28.1V28V27.9H223V27.8V27.7V27.6V27.5V27.4V27.3V27.2V27.1V27H222.9V26.9V26.8V26.7V26.6V26.5V26.4V26.3V26.2V26.1V26" stroke="white"/>
<path d="M222.9 422.1V422V421.9V421.8V421.7V421.6V421.5V421.4V421.3H223V421.2V421.1V421V420.9V420.8V420.7V420.6V420.5H223.1V420.4V420.3V420.2V420.1V420V419.9V419.8H223.2V419.7V419.6V419.5V419.4V419.3H223.3V419.2V419.1V419V418.9V418.8H223.4V418.7V418.6V418.5V418.4V418.3H223.5V418.2V418.1V418V417.9H223.6V417.8V417.7V417.6V417.5H223.7V417.4V417.3V417.2H223.8V417.1V417V416.9V416.8H223.9V416.7V416.6V416.5H224V416.4V416.3V416.2L224.1 416.1V416V415.9L224.2 415.8V415.7V415.6L224.3 415.5V415.4V415.3H224.4V415.2V415.1L224.5 415V414.9V414.8L224.6 414.7V414.6V414.5L224.7 414.4V414.3V414.2H224.8V414.1V414H224.9V413.9V413.8V413.7H225V413.6V413.5L225.1 413.4V413.3L225.2 413.2V413.1L225.3 413V412.9L225.4 412.8V412.7V412.6L225.5 412.5V412.4L225.6 412.3V412.2L225.7 412.1V412L225.8 411.9V411.8L225.9 411.7V411.5L226 411.4L226.1 411.3V411.2L226.2 411.1V410.9L226.3 410.8L226.4 410.7L226.5 410.5V410.4L226.6 410.2L226.7 410.1L226.8 409.9V409.8L226.9 409.6L227 409.4L227.1 409.3L227.2 409.1L227.3 408.9L227.4 408.7L227.5 408.6L227.6 408.4L227.7 408.2L227.9 408L228 407.8L228.1 407.5L228.2 407.3L228.4 407.1L228.5 406.9L228.7 406.6L228.8 406.4L229 406.1L229.2 405.8L229.3 405.6L229.5 405.3L229.7 405L229.9 404.7L230.1 404.4L230.3 404L230.6 403.7L230.8 403.3L231.1 403L231.3 402.6L231.6 402.2L231.9 401.8L232.2 401.3L232.5 400.9L232.9 400.4L233.3 399.9L233.6 399.4L234 398.8L234.5 398.3L234.9 397.6L235.4 397L236 396.3L236.5 395.6L237.1 394.9L237.7 394.1L238.4 393.2L239.2 392.3L239.9 391.4L240.8 390.3L241.7 389.2L242.7 388.1L243.8 386.8L244.9 385.4L246.2 384L247.6 382.4L249.1 380.6L250.8 378.7L252.7 376.7L254.7 374.4L256.9 371.9L259.4 369.2L262.1 366.2L265.2 362.9L268.6 359.3L272.3 355.3L276.4 350.9L280.9 346.1L285.8 340.9L291.2 335.3L296.8 329.3L302.8 323L308.9 316.6L315 310.1L321.1 303.6L327.1 297.3L332.7 291.3L338 285.7L342.9 280.4L347.3 275.5L351.4 271L355 266.9L358.3 263.1L361.2 259.7L363.9 256.6L366.2 253.7L368.3 251.1L370.1 248.7L371.8 246.4L373.3 244.3L374.6 242.3L375.7 240.5L376.8 238.8L377.7 237.1L378.4 235.6L379.1 234.1L379.7 232.6L380.2 231.2L380.6 229.9L380.9 228.5L381.1 227.2L381.3 226L381.4 224.7V223.4L381.3 222.1L381.1 220.9L380.9 219.6L380.6 218.2L380.2 216.9L379.7 215.5L379.1 214L378.4 212.5L377.7 211L376.8 209.3L375.7 207.6L374.6 205.8L373.3 203.8L371.8 201.7L370.1 199.4L368.3 197L366.2 194.4L363.9 191.5L361.2 188.4L358.3 185L355 181.2L351.4 177.1L347.3 172.6L342.9 167.7L338 162.4L332.7 156.8L327.1 150.8L321.1 144.5L315 138L308.9 131.5L302.8 125.1L296.8 118.8L291.2 112.8L285.8 107.2L280.9 102L276.4 97.2L272.3 92.8L268.6 88.8L265.2 85.2L262.1 81.9L259.4 78.9L256.9 76.2L254.7 73.7L252.7 71.4L250.8 69.4L249.1 67.5L247.6 65.7L246.2 64.1L244.9 62.7L243.8 61.3L242.7 60L241.7 58.9L240.8 57.8L239.9 56.7L239.2 55.8L238.4 54.9L237.7 54L237.1 53.2L236.5 52.5L236 51.8L235.4 51.1L234.9 50.5L234.5 49.8L234 49.3L233.6 48.7L233.3 48.2L232.9 47.7L232.5 47.2L232.2 46.8L231.9 46.3L231.6 45.9L231.3 45.5L231.1 45.1L230.8 44.8L230.6 44.4L230.3 44.1L230.1 43.7L229.9 43.4L229.7 43.1L229.5 42.8L229.3 42.5L229.2 42.3L229 42L228.8 41.7L228.7 41.5L228.5 41.2L228.4 41L228.2 40.8L228.1 40.6L228 40.3L227.9 40.1L227.7 39.9L227.6 39.7L227.5 39.5L227.4 39.4L227.3 39.2L227.2 39L227.1 38.8L227 38.7L226.9 38.5L226.8 38.3V38.2L226.7 38L226.6 37.9L226.5 37.7V37.6L226.4 37.4L226.3 37.3L226.2 37.2V37L226.1 36.9V36.8L226 36.7L225.9 36.6V36.4L225.8 36.3V36.2L225.7 36.1V36L225.6 35.9V35.8L225.5 35.7V35.6L225.4 35.5V35.4V35.3L225.3 35.2V35.1L225.2 35V34.9L225.1 34.8V34.7L225 34.6V34.5V34.4H224.9V34.3V34.2V34.1H224.8V34V33.9H224.7V33.8V33.7L224.6 33.6V33.5V33.4L224.5 33.3V33.2V33.1L224.4 33V32.9V32.8H224.3V32.7V32.6L224.2 32.5V32.4V32.3L224.1 32.2V32.1V32L224 31.9V31.8V31.7V31.6H223.9V31.5V31.4V31.3H223.8V31.2V31.1V31V30.9H223.7V30.8V30.7V30.6H223.6V30.5V30.4V30.3V30.2H223.5V30.1V30V29.9V29.8H223.4V29.7V29.6V29.5V29.4V29.3H223.3V29.2V29.1V29V28.9V28.8H223.2V28.7V28.6V28.5V28.4V28.3H223.1V28.2V28.1V28V27.9V27.8V27.7V27.6H223V27.5V27.4V27.3V27.2V27.1V27V26.9V26.8H222.9V26.7V26.6V26.5V26.4V26.3V26.2V26.1V26" stroke="white"/>
<path d="M222.8 422.1V422V421.9V421.8V421.7V421.6V421.5V421.4V421.3V421.2V421.1V421V420.9V420.8V420.7V420.6V420.5V420.4V420.3V420.2V420.1V420V419.9V419.8V419.7V419.6V419.5V419.4V419.3V419.2V419.1V419V418.9V418.8V418.7V418.6V418.5V418.4H222.7V418.3V418.2V418.1V418V417.9V417.8V417.7V417.6V417.5V417.4V417.3V417.2V417.1V417V416.9V416.8V416.7V416.6V416.5V416.4V416.3H222.6V416.2V416.1V416V415.9V415.8V415.7V415.6V415.5V415.4V415.3V415.2V415.1V415V414.9V414.8V414.7L222.5 414.6V414.5V414.4V414.3V414.2V414.1V414V413.9V413.8V413.7V413.6V413.5V413.4L222.4 413.3V413.2V413.1V413V412.9V412.8V412.7V412.6V412.5V412.4V412.3V412.2V412.1L222.3 412V411.9V411.8V411.7V411.6V411.5V411.4V411.3V411.2V411L222.2 410.9V410.8V410.7V410.5V410.4V410.3V410.1L222.1 410V409.8V409.7V409.6V409.4V409.2L222 409.1V408.9V408.8V408.6V408.4V408.2L221.9 408V407.9V407.7V407.5L221.8 407.3V407.1V406.8V406.6L221.7 406.4V406.2V405.9L221.6 405.7V405.4V405.2L221.5 404.9V404.6L221.4 404.4V404.1V403.8L221.3 403.5V403.2L221.2 402.8V402.5L221.1 402.1L221 401.8V401.4L220.9 401L220.8 400.6V400.2L220.7 399.8L220.6 399.3L220.5 398.9L220.4 398.4L220.3 397.9L220.2 397.3L220.1 396.8L220 396.2L219.9 395.6L219.8 395L219.6 394.4L219.5 393.7L219.3 393L219.2 392.3L219 391.5L218.8 390.7L218.6 389.8L218.4 388.9L218.1 388L217.8 386.9L217.6 385.9L217.3 384.8L216.9 383.6L216.6 382.3L216.2 380.9L215.7 379.5L215.3 377.9L214.7 376.3L214.2 374.5L213.5 372.6L212.8 370.6L212 368.4L211.2 366L210.2 363.4L209.1 360.5L207.9 357.4L206.6 354.1L205.1 350.4L203.4 346.3L201.5 341.9L199.3 337L197 331.7L194.3 325.8L191.5 319.3L188.3 312.3L185 304.7L181.5 296.5L178.1 287.8L174.6 278.6L171.5 269.1L168.7 259.3L166.5 249.4L164.9 239.3L164.1 229.1V219L164.9 208.8L166.5 198.7L168.7 188.8L171.5 179L174.6 169.5L178.1 160.3L181.5 151.6L185 143.4L188.3 135.8L191.5 128.8L194.3 122.3L197 116.4L199.3 111.1L201.5 106.2L203.4 101.8L205.1 97.7L206.6 94L207.9 90.7L209.1 87.6L210.2 84.7L211.2 82.1L212 79.7L212.8 77.5L213.5 75.5L214.2 73.6L214.7 71.8L215.3 70.2L215.7 68.6L216.2 67.2L216.6 65.8L216.9 64.5L217.3 63.3L217.6 62.2L217.8 61.2L218.1 60.1L218.4 59.2L218.6 58.3L218.8 57.4L219 56.6L219.2 55.8L219.3 55.1L219.5 54.4L219.6 53.7L219.8 53.1L219.9 52.5L220 51.9L220.1 51.3L220.2 50.8L220.3 50.2L220.4 49.7L220.5 49.2L220.6 48.8L220.7 48.3L220.8 47.9V47.5L220.9 47.1L221 46.7V46.3L221.1 46L221.2 45.6V45.3L221.3 44.9V44.6L221.4 44.3V44V43.7L221.5 43.5V43.2L221.6 42.9V42.7V42.4L221.7 42.2V41.9V41.7L221.8 41.5V41.3V41V40.8L221.9 40.6V40.4V40.2V40.1L222 39.9V39.7V39.5V39.3V39.2V39L222.1 38.9V38.7V38.5V38.4V38.3V38.1L222.2 38V37.8V37.7V37.6V37.4V37.3V37.2L222.3 37.1V36.9V36.8V36.7V36.6V36.5V36.4V36.3V36.2V36.1L222.4 36V35.9V35.8V35.7V35.6V35.5V35.4V35.3V35.2V35.1V35V34.9V34.8L222.5 34.7V34.6V34.5V34.4V34.3V34.2V34.1V34V33.9V33.8V33.7V33.6V33.5L222.6 33.4V33.3V33.2V33.1V33V32.9V32.8V32.7V32.6V32.5V32.4V32.3V32.2V32.1V32V31.9V31.8H222.7V31.7V31.6V31.5V31.4V31.3V31.2V31.1V31V30.9V30.8V30.7V30.6V30.5V30.4V30.3V30.2V30.1V30V29.9V29.8V29.7H222.8V29.6V29.5V29.4V29.3V29.2V29.1V29V28.9V28.8V28.7V28.6V28.5V28.4V28.3V28.2V28.1V28V27.9V27.8V27.7V27.6V27.5V27.4V27.3V27.2V27.1V27V26.9V26.8V26.7V26.6V26.5V26.4V26.3V26.2V26.1V26" stroke="white"/>
<path d="M222.8 422.1V422V421.9V421.8V421.7V421.6V421.5V421.4V421.3V421.2V421.1V421V420.9V420.8V420.7V420.6V420.5V420.4V420.3V420.2V420.1V420V419.9V419.8H222.7V419.7V419.6V419.5V419.4V419.3V419.2V419.1V419V418.9V418.8V418.7V418.6V418.5V418.4H222.6V418.3V418.2V418.1V418V417.9V417.8V417.7V417.6V417.5V417.4V417.3V417.2H222.5V417.1V417V416.9V416.8V416.7V416.6V416.5V416.4V416.3L222.4 416.2V416.1V416V415.9V415.8V415.7V415.6V415.5V415.4H222.3V415.3V415.2V415.1V415V414.9V414.8V414.7L222.2 414.6V414.5V414.4V414.3V414.2V414.1V414L222.1 413.9V413.8V413.7V413.6V413.5V413.4V413.3H222V413.2V413.1V413V412.9V412.8V412.7L221.9 412.6V412.5V412.4V412.3V412.2L221.8 412.1V412V411.9V411.8V411.6V411.5L221.7 411.4V411.3V411.2V411.1L221.6 410.9V410.8V410.7V410.6L221.5 410.4V410.3V410.2V410L221.4 409.9V409.7V409.6L221.3 409.4V409.3V409.1L221.2 408.9V408.8V408.6L221.1 408.4V408.3L221 408.1V407.9L220.9 407.7V407.5L220.8 407.3V407.1L220.7 406.9V406.6L220.6 406.4V406.2L220.5 405.9L220.4 405.7V405.4L220.3 405.2L220.2 404.9L220.1 404.6V404.3L220 404L219.9 403.7L219.8 403.4L219.7 403.1L219.6 402.8L219.5 402.4L219.4 402.1L219.3 401.7L219.1 401.3L219 400.9L218.9 400.5L218.7 400.1L218.6 399.6L218.4 399.2L218.3 398.7L218.1 398.2L217.9 397.7L217.7 397.1L217.5 396.5L217.2 396L217 395.3L216.7 394.7L216.5 394L216.2 393.3L215.9 392.5L215.5 391.7L215.2 390.9L214.8 390L214.3 389.1L213.9 388.1L213.4 387.1L212.9 386L212.3 384.8L211.7 383.6L211 382.2L210.2 380.8L209.4 379.3L208.5 377.6L207.5 375.9L206.5 373.9L205.3 371.9L203.9 369.6L202.5 367.2L200.8 364.6L199 361.7L197 358.5L194.7 355L192.2 351.2L189.3 347.1L186.2 342.5L182.7 337.4L178.8 332L174.6 326L170.1 319.6L165.3 312.8L160.3 305.6L155.2 298.1L150.1 290.5L145.2 282.9L140.6 275.3L136.4 267.8L132.7 260.6L129.6 253.5L127.1 246.7L125.2 240.1L123.9 233.6L123.3 227.2V220.9L123.9 214.5L125.2 208L127.1 201.4L129.6 194.6L132.7 187.5L136.4 180.3L140.6 172.8L145.2 165.2L150.1 157.6L155.2 150L160.3 142.5L165.3 135.3L170.1 128.5L174.6 122.1L178.8 116.1L182.7 110.7L186.2 105.6L189.3 101L192.2 96.9L194.7 93.1L197 89.6L199 86.4L200.8 83.5L202.5 80.9L203.9 78.5L205.3 76.2L206.5 74.2L207.5 72.2L208.5 70.5L209.4 68.8L210.2 67.3L211 65.9L211.7 64.5L212.3 63.3L212.9 62.1L213.4 61L213.9 60L214.3 59L214.8 58.1L215.2 57.2L215.5 56.4L215.9 55.6L216.2 54.8L216.5 54.1L216.7 53.4L217 52.8L217.2 52.1L217.5 51.6L217.7 51L217.9 50.4L218.1 49.9L218.3 49.4L218.4 48.9L218.6 48.5L218.7 48L218.9 47.6L219 47.2L219.1 46.8L219.3 46.4L219.4 46L219.5 45.7L219.6 45.3L219.7 45L219.8 44.7L219.9 44.4L220 44.1L220.1 43.8V43.5L220.2 43.2L220.3 42.9L220.4 42.7V42.4L220.5 42.2L220.6 41.9V41.7L220.7 41.5V41.2L220.8 41V40.8L220.9 40.6V40.4L221 40.2V40L221.1 39.8V39.7L221.2 39.5V39.3V39.2L221.3 39V38.8V38.7L221.4 38.5V38.4V38.2L221.5 38.1V37.9V37.8V37.7L221.6 37.5V37.4V37.3V37.2L221.7 37V36.9V36.8V36.7L221.8 36.6V36.5V36.3V36.2V36.1V36L221.9 35.9V35.8V35.7V35.6V35.5L222 35.4V35.3V35.2V35.1V35V34.9V34.8H222.1V34.7V34.6V34.5V34.4V34.3V34.2L222.2 34.1V34V33.9V33.8V33.7V33.6V33.5L222.3 33.4V33.3V33.2V33.1V33V32.9V32.8V32.7H222.4V32.6V32.5V32.4V32.3V32.2V32.1V32V31.9L222.5 31.8V31.7V31.6V31.5V31.4V31.3V31.2V31.1V31V30.9H222.6V30.8V30.7V30.6V30.5V30.4V30.3V30.2V30.1V30V29.9V29.8V29.7H222.7V29.6V29.5V29.4V29.3V29.2V29.1V29V28.9V28.8V28.7V28.6V28.5V28.4V28.3H222.8V28.2V28.1V28V27.9V27.8V27.7V27.6V27.5V27.4V27.3V27.2V27.1V27V26.9V26.8V26.7V26.6V26.5V26.4V26.3V26.2V26.1V26" stroke="white"/>
<path d="M222.8 422.1V422V421.9V421.8V421.7V421.6V421.5V421.4V421.3V421.2V421.1V421V420.9V420.8V420.7V420.6V420.5H222.7V420.4V420.3V420.2V420.1V420V419.9V419.8V419.7V419.6V419.5V419.4V419.3H222.6V419.2V419.1V419V418.9V418.8V418.7V418.6V418.5V418.4L222.5 418.3V418.2V418.1V418V417.9V417.8V417.7V417.6L222.4 417.5V417.4V417.3V417.2V417.1V417V416.9L222.3 416.8V416.7V416.6V416.5V416.4V416.3L222.2 416.2V416.1V416V415.9V415.8V415.7L222.1 415.6V415.5V415.4V415.3V415.2L222 415.1V415V414.9V414.8V414.7L221.9 414.6V414.5V414.4V414.3V414.2V414.1H221.8V414V413.9V413.8V413.7L221.7 413.6V413.5V413.4V413.3L221.6 413.2V413.1V413V412.9V412.8L221.5 412.7V412.6V412.5L221.4 412.4V412.3V412.2V412.1L221.3 412V411.8V411.7L221.2 411.6V411.5V411.4V411.3L221.1 411.2V411V410.9L221 410.8V410.7L220.9 410.5V410.4V410.3L220.8 410.1V410L220.7 409.8V409.7L220.6 409.5V409.4L220.5 409.2V409.1L220.4 408.9V408.7L220.3 408.5V408.4L220.2 408.2L220.1 408V407.8L220 407.6L219.9 407.4V407.2L219.8 407L219.7 406.7L219.6 406.5L219.5 406.3L219.4 406L219.3 405.8V405.5L219.1 405.3L219 405L218.9 404.7L218.8 404.4L218.7 404.1L218.6 403.8L218.4 403.5L218.3 403.2L218.1 402.8L218 402.5L217.8 402.1L217.7 401.7L217.5 401.3L217.3 400.9L217.1 400.5L216.9 400.1L216.7 399.6L216.4 399.1L216.2 398.6L215.9 398.1L215.7 397.5L215.4 397L215 396.4L214.7 395.8L214.4 395.1L214 394.4L213.6 393.7L213.2 392.9L212.7 392.1L212.2 391.3L211.7 390.4L211.1 389.4L210.5 388.4L209.8 387.3L209.1 386.2L208.3 384.9L207.4 383.6L206.5 382.2L205.4 380.7L204.3 379.1L203.1 377.3L201.7 375.4L200.2 373.3L198.6 371.1L196.8 368.6L194.7 366L192.5 363L190 359.8L187.2 356.2L184 352.4L180.6 348.1L176.8 343.4L172.6 338.3L168 332.7L163 326.7L157.7 320.4L152.2 313.7L146.5 306.8L140.8 299.9L135.2 292.9L129.8 286.1L124.7 279.5L120.1 273.2L115.9 267.3L112.1 261.6L108.9 256.4L106.1 251.4L103.8 246.7L101.9 242.3L100.4 238L99.3 233.9L98.5 229.9L98.2 226V222.1L98.5 218.2L99.3 214.2L100.4 210.1L101.9 205.8L103.8 201.4L106.1 196.7L108.9 191.7L112.1 186.5L115.9 180.8L120.1 174.9L124.7 168.6L129.8 162L135.2 155.2L140.8 148.2L146.5 141.3L152.2 134.4L157.7 127.7L163 121.4L168 115.4L172.6 109.8L176.8 104.7L180.6 100L184 95.7L187.2 91.9L190 88.3L192.5 85.1L194.7 82.1L196.8 79.5L198.6 77L200.2 74.8L201.7 72.7L203.1 70.8L204.3 69L205.4 67.4L206.5 65.9L207.4 64.5L208.3 63.2L209.1 61.9L209.8 60.8L210.5 59.7L211.1 58.7L211.7 57.7L212.2 56.8L212.7 56L213.2 55.2L213.6 54.4L214 53.7L214.4 53L214.7 52.3L215 51.7L215.4 51.1L215.7 50.6L215.9 50L216.2 49.5L216.4 49L216.7 48.5L216.9 48L217.1 47.6L217.3 47.2L217.5 46.8L217.7 46.4L217.8 46L218 45.6L218.1 45.3L218.3 44.9L218.4 44.6L218.6 44.3L218.7 44L218.8 43.7L218.9 43.4L219 43.1L219.1 42.8L219.3 42.6V42.3L219.4 42.1L219.5 41.8L219.6 41.6L219.7 41.4L219.8 41.1L219.9 40.9V40.7L220 40.5L220.1 40.3V40.1L220.2 39.9L220.3 39.7V39.6L220.4 39.4V39.2L220.5 39V38.9L220.6 38.7V38.6L220.7 38.4V38.3L220.8 38.1V38L220.9 37.8V37.7V37.6L221 37.4V37.3L221.1 37.2V37.1V36.9L221.2 36.8V36.7V36.6V36.5L221.3 36.4V36.3V36.1L221.4 36V35.9V35.8V35.7L221.5 35.6V35.5V35.4L221.6 35.3V35.2V35.1V35V34.9L221.7 34.8V34.7V34.6V34.5L221.8 34.4V34.3V34.2V34.1V34H221.9V33.9V33.8V33.7V33.6V33.5L222 33.4V33.3V33.2V33.1V33L222.1 32.9V32.8V32.7V32.6V32.5L222.2 32.4V32.3V32.2V32.1V32V31.9L222.3 31.8V31.7V31.6V31.5V31.4V31.3L222.4 31.2V31.1V31V30.9V30.8V30.7V30.6L222.5 30.5V30.4V30.3V30.2V30.1V30V29.9V29.8L222.6 29.7V29.6V29.5V29.4V29.3V29.2V29.1V29V28.9V28.8H222.7V28.7V28.6V28.5V28.4V28.3V28.2V28.1V28V27.9V27.8V27.7V27.6H222.8V27.5V27.4V27.3V27.2V27.1V27V26.9V26.8V26.7V26.6V26.5V26.4V26.3V26.2V26.1V26" stroke="white"/>
<path d="M222.8 422.1V422V421.9V421.8V421.7V421.6V421.5V421.4V421.3V421.2V421.1V421V420.9H222.7V420.8V420.7V420.6V420.5V420.4V420.3V420.2V420.1V420V419.9V419.8H222.6V419.7V419.6V419.5V419.4V419.3V419.2V419.1V419H222.5V418.9V418.8V418.7V418.6V418.5V418.4V418.3H222.4V418.2V418.1V418V417.9V417.8L222.3 417.7V417.6V417.5V417.4V417.3V417.2H222.2V417.1V417V416.9V416.8V416.7H222.1V416.6V416.5V416.4V416.3L222 416.2V416.1V416V415.9V415.8H221.9V415.7V415.6V415.5V415.4L221.8 415.3V415.2V415.1V415L221.7 414.9V414.8V414.7V414.6L221.6 414.5V414.4V414.3L221.5 414.2V414.1V414V413.9L221.4 413.8V413.7V413.6V413.5H221.3V413.4V413.3V413.2L221.2 413.1V413V412.9L221.1 412.8V412.7V412.6L221 412.5V412.4V412.3L220.9 412.2V412.1V412L220.8 411.9V411.8V411.7L220.7 411.6V411.5L220.6 411.3V411.2V411.1L220.5 411V410.8L220.4 410.7V410.6L220.3 410.4V410.3L220.2 410.2V410L220.1 409.9L220 409.7V409.6L219.9 409.4L219.8 409.3V409.1L219.7 408.9L219.6 408.7V408.6L219.5 408.4L219.4 408.2L219.3 408L219.2 407.8L219.1 407.6V407.4L219 407.2L218.9 406.9L218.8 406.7L218.6 406.5L218.5 406.2L218.4 406L218.3 405.7L218.2 405.5L218 405.2L217.9 404.9L217.7 404.6L217.6 404.3L217.4 404L217.3 403.7L217.1 403.4L216.9 403L216.7 402.7L216.5 402.3L216.3 401.9L216.1 401.5L215.8 401.1L215.6 400.7L215.3 400.2L215.1 399.7L214.8 399.2L214.5 398.7L214.1 398.2L213.8 397.6L213.4 397L213 396.4L212.6 395.8L212.2 395.1L211.7 394.4L211.2 393.6L210.6 392.8L210.1 392L209.4 391.1L208.8 390.1L208 389.1L207.3 388L206.4 386.8L205.5 385.6L204.5 384.2L203.4 382.8L202.2 381.2L200.9 379.6L199.4 377.7L197.8 375.8L196.1 373.6L194.2 371.3L192 368.7L189.6 365.9L187 362.8L184.1 359.3L180.8 355.6L177.2 351.5L173.2 346.9L168.9 342L164.1 336.6L158.9 330.8L153.4 324.7L147.7 318.2L141.8 311.6L135.8 304.9L129.9 298.2L124.2 291.7L118.8 285.4L113.8 279.5L109.2 274L105 268.8L101.3 264L98 259.5L95.1 255.4L92.5 251.6L90.3 248.1L88.5 244.7L86.9 241.6L85.5 238.7L84.5 235.8L83.6 233.1L83 230.5L82.6 227.9L82.4 225.3V222.8L82.6 220.2L83 217.6L83.6 215L84.5 212.3L85.5 209.4L86.9 206.5L88.5 203.4L90.3 200L92.5 196.5L95.1 192.7L98 188.6L101.3 184.1L105 179.3L109.2 174.1L113.8 168.6L118.8 162.7L124.2 156.4L129.9 149.9L135.8 143.2L141.8 136.5L147.7 129.9L153.4 123.4L158.9 117.3L164.1 111.5L168.9 106.1L173.2 101.2L177.2 96.6L180.8 92.5L184.1 88.8L187 85.3L189.6 82.2L192 79.4L194.2 76.8L196.1 74.5L197.8 72.3L199.4 70.4L200.9 68.5L202.2 66.9L203.4 65.3L204.5 63.9L205.5 62.5L206.4 61.3L207.3 60.1L208 59L208.8 58L209.4 57L210.1 56.1L210.6 55.3L211.2 54.5L211.7 53.7L212.2 53L212.6 52.3L213 51.7L213.4 51.1L213.8 50.5L214.1 49.9L214.5 49.4L214.8 48.9L215.1 48.4L215.3 47.9L215.6 47.4L215.8 47L216.1 46.6L216.3 46.2L216.5 45.8L216.7 45.4L216.9 45.1L217.1 44.7L217.3 44.4L217.4 44.1L217.6 43.8L217.7 43.5L217.9 43.2L218 42.9L218.2 42.6L218.3 42.4L218.4 42.1L218.5 41.9L218.6 41.6L218.8 41.4L218.9 41.2L219 40.9L219.1 40.7V40.5L219.2 40.3L219.3 40.1L219.4 39.9L219.5 39.7L219.6 39.5V39.4L219.7 39.2L219.8 39V38.8L219.9 38.7L220 38.5V38.4L220.1 38.2L220.2 38.1V37.9L220.3 37.8V37.7L220.4 37.5V37.4L220.5 37.3V37.1L220.6 37V36.9V36.8L220.7 36.6V36.5L220.8 36.4V36.3V36.2L220.9 36.1V36V35.9L221 35.8V35.7V35.6L221.1 35.5V35.4V35.3L221.2 35.2V35.1V35L221.3 34.9V34.8V34.7V34.6H221.4V34.5V34.4V34.3L221.5 34.2V34.1V34V33.9L221.6 33.8V33.7V33.6L221.7 33.5V33.4V33.3V33.2L221.8 33.1V33V32.9V32.8L221.9 32.7V32.6V32.5V32.4V32.3H222V32.2V32.1V32V31.9L222.1 31.8V31.7V31.6V31.5V31.4H222.2V31.3V31.2V31.1V31V30.9H222.3V30.8V30.7V30.6V30.5V30.4L222.4 30.3V30.2V30.1V30V29.9V29.8H222.5V29.7V29.6V29.5V29.4V29.3V29.2V29.1H222.6V29V28.9V28.8V28.7V28.6V28.5V28.4V28.3H222.7V28.2V28.1V28V27.9V27.8V27.7V27.6V27.5V27.4V27.3V27.2H222.8V27.1V27V26.9V26.8V26.7V26.6V26.5V26.4V26.3V26.2V26.1V26" stroke="white"/>
<path d="M222.8 422.1V422V421.9V421.8V421.7V421.6V421.5V421.4V421.3V421.2V421.1H222.7V421V420.9V420.8V420.7V420.6V420.5V420.4V420.3V420.2H222.6V420.1V420V419.9V419.8V419.7V419.6V419.5H222.5V419.4V419.3V419.2V419.1V419V418.9H222.4V418.8V418.7V418.6V418.5V418.4V418.3H222.3V418.2V418.1V418V417.9L222.2 417.8V417.7V417.6V417.5V417.4H222.1V417.3V417.2V417.1V417L222 416.9V416.8V416.7V416.6H221.9V416.5V416.4V416.3V416.2H221.8V416.1V416V415.9L221.7 415.8V415.7V415.6V415.5H221.6V415.4V415.3V415.2H221.5V415.1V415V414.9L221.4 414.8V414.7V414.6L221.3 414.5V414.4V414.3L221.2 414.2V414.1V414L221.1 413.9V413.8V413.7H221V413.6V413.5V413.4L220.9 413.3V413.2L220.8 413.1V413V412.9L220.7 412.8V412.7V412.6L220.6 412.5V412.4L220.5 412.3V412.2V412.1L220.4 412V411.9L220.3 411.8V411.7L220.2 411.6V411.5L220.1 411.3V411.2L220 411.1V411L219.9 410.8V410.7L219.8 410.6L219.7 410.4V410.3L219.6 410.2L219.5 410V409.9L219.4 409.7L219.3 409.5L219.2 409.4V409.2L219.1 409L219 408.9L218.9 408.7L218.8 408.5L218.7 408.3L218.6 408.1L218.5 407.9L218.4 407.7L218.3 407.5L218.2 407.3L218.1 407.1L217.9 406.8L217.8 406.6L217.7 406.4L217.5 406.1L217.4 405.8L217.2 405.6L217.1 405.3L216.9 405L216.7 404.7L216.6 404.4L216.4 404.1L216.2 403.8L216 403.4L215.8 403.1L215.5 402.7L215.3 402.3L215 401.9L214.8 401.5L214.5 401.1L214.2 400.6L213.9 400.1L213.5 399.7L213.2 399.1L212.8 398.6L212.4 398L212 397.4L211.6 396.8L211.1 396.2L210.6 395.5L210.1 394.7L209.5 394L208.9 393.1L208.2 392.3L207.5 391.4L206.7 390.4L205.9 389.3L205 388.2L204.1 387L203 385.7L201.9 384.3L200.6 382.8L199.3 381.2L197.8 379.4L196.1 377.5L194.3 375.4L192.3 373.1L190.1 370.6L187.7 367.8L185 364.8L182 361.4L178.7 357.8L175 353.7L170.9 349.3L166.5 344.4L161.6 339.1L156.3 333.4L150.7 327.4L144.9 321.1L138.8 314.6L132.7 308L126.7 301.5L120.9 295.1L115.3 289L110.1 283.2L105.3 277.8L101 272.9L97 268.3L93.5 264.1L90.3 260.2L87.5 256.6L85.1001 253.4L82.9 250.3L80.9 247.6L79.2 245L77.8 242.5L76.5 240.2L75.4 238.1L74.5 236L73.7 234L73 232.1L72.5 230.3L72.2 228.5L71.9 226.7L71.8 224.9V223.2L71.9 221.4L72.2 219.6L72.5 217.8L73 216L73.7 214.1L74.5 212.1L75.4 210L76.5 207.9L77.8 205.6L79.2 203.1L80.9 200.5L82.9 197.8L85.1001 194.7L87.5 191.5L90.3 187.9L93.5 184L97 179.8L101 175.2L105.3 170.3L110.1 164.9L115.3 159.1L120.9 153L126.7 146.6L132.7 140.1L138.8 133.5L144.9 127L150.7 120.7L156.3 114.7L161.6 109L166.5 103.7L170.9 98.8L175 94.4L178.7 90.3L182 86.7L185 83.3L187.7 80.3L190.1 77.5L192.3 75L194.3 72.7L196.1 70.6L197.8 68.7L199.3 66.9L200.6 65.3L201.9 63.8L203 62.4L204.1 61.1L205 59.9L205.9 58.8L206.7 57.7L207.5 56.7L208.2 55.8L208.9 55L209.5 54.1L210.1 53.4L210.6 52.6L211.1 51.9L211.6 51.3L212 50.7L212.4 50.1L212.8 49.5L213.2 49L213.5 48.4L213.9 48L214.2 47.5L214.5 47L214.8 46.6L215 46.2L215.3 45.8L215.5 45.4L215.8 45L216 44.7L216.2 44.3L216.4 44L216.6 43.7L216.7 43.4L216.9 43.1L217.1 42.8L217.2 42.5L217.4 42.3L217.5 42L217.7 41.7L217.8 41.5L217.9 41.3L218.1 41L218.2 40.8L218.3 40.6L218.4 40.4L218.5 40.2L218.6 40L218.7 39.8L218.8 39.6L218.9 39.4L219 39.2L219.1 39.1L219.2 38.9V38.7L219.3 38.6L219.4 38.4L219.5 38.2V38.1L219.6 37.9L219.7 37.8V37.7L219.8 37.5L219.9 37.4V37.3L220 37.1V37L220.1 36.9V36.8L220.2 36.6V36.5L220.3 36.4V36.3L220.4 36.2V36.1L220.5 36V35.9V35.8L220.6 35.7V35.6L220.7 35.5V35.4V35.3L220.8 35.2V35.1V35L220.9 34.9V34.8L221 34.7V34.6V34.5V34.4H221.1V34.3V34.2L221.2 34.1V34V33.9L221.3 33.8V33.7V33.6L221.4 33.5V33.4V33.3L221.5 33.2V33.1V33V32.9H221.6V32.8V32.7V32.6H221.7V32.5V32.4V32.3L221.8 32.2V32.1V32V31.9H221.9V31.8V31.7V31.6V31.5H222V31.4V31.3V31.2L222.1 31.1V31V30.9V30.8V30.7H222.2V30.6V30.5V30.4V30.3L222.3 30.2V30.1V30V29.9V29.8H222.4V29.7V29.6V29.5V29.4V29.3V29.2H222.5V29.1V29V28.9V28.8V28.7V28.6H222.6V28.5V28.4V28.3V28.2V28.1V28V27.9H222.7V27.8V27.7V27.6V27.5V27.4V27.3V27.2V27.1V27H222.8V26.9V26.8V26.7V26.6V26.5V26.4V26.3V26.2V26.1V26" stroke="white"/>
<path d="M222.8 422.1V422V421.9V421.8V421.7V421.6V421.5V421.4V421.3H222.7V421.2V421.1V421V420.9V420.8V420.7V420.6V420.5H222.6V420.4V420.3V420.2V420.1V420V419.9V419.8H222.5V419.7V419.6V419.5V419.4V419.3H222.4V419.2V419.1V419V418.9V418.8H222.3V418.7V418.6V418.5V418.4V418.3H222.2V418.2V418.1V418V417.9H222.1V417.8V417.7V417.6V417.5H222V417.4V417.3V417.2H221.9V417.1V417V416.9V416.8H221.8V416.7V416.6V416.5H221.7V416.4V416.3V416.2L221.6 416.1V416V415.9L221.5 415.8V415.7V415.6L221.4 415.5V415.4V415.3H221.3V415.2V415.1L221.2 415V414.9V414.8L221.1 414.7V414.6V414.5L221 414.4V414.3V414.2H220.9V414.1V414H220.8V413.9V413.8V413.7H220.7V413.6V413.5L220.6 413.4V413.3L220.5 413.2V413.1L220.4 413V412.9L220.3 412.8V412.7V412.6L220.2 412.5V412.4L220.1 412.3V412.2L220 412.1V412L219.9 411.9V411.8L219.8 411.7V411.5L219.7 411.4L219.6 411.3V411.2L219.5 411.1V410.9L219.4 410.8L219.3 410.7L219.2 410.5V410.4L219.1 410.2L219 410.1L218.9 409.9V409.8L218.8 409.6L218.7 409.4L218.6 409.3L218.5 409.1L218.4 408.9L218.3 408.7L218.2 408.6L218.1 408.4L218 408.2L217.8 408L217.7 407.8L217.6 407.5L217.5 407.3L217.3 407.1L217.2 406.9L217 406.6L216.9 406.4L216.7 406.1L216.5 405.8L216.4 405.6L216.2 405.3L216 405L215.8 404.7L215.6 404.4L215.4 404L215.1 403.7L214.9 403.3L214.6 403L214.4 402.6L214.1 402.2L213.8 401.8L213.5 401.3L213.2 400.9L212.8 400.4L212.4 399.9L212.1 399.4L211.7 398.8L211.2 398.3L210.8 397.6L210.3 397L209.7 396.3L209.2 395.6L208.6 394.9L208 394.1L207.3 393.2L206.5 392.3L205.8 391.4L204.9 390.3L204 389.2L203 388.1L201.9 386.8L200.8 385.4L199.5 384L198.1 382.4L196.6 380.6L194.9 378.7L193 376.7L191 374.4L188.8 371.9L186.3 369.2L183.6 366.2L180.5 362.9L177.1 359.3L173.4 355.3L169.3 350.9L164.8 346.1L159.9 340.9L154.5 335.3L148.9 329.3L142.9 323L136.8 316.6L130.7 310.1L124.6 303.6L118.6 297.3L113 291.3L107.7 285.7L102.8 280.4L98.4 275.5L94.3 271L90.7 266.9L87.4 263.1L84.5 259.7L81.8 256.6L79.5 253.7L77.4 251.1L75.6001 248.7L73.9 246.4L72.4 244.3L71.1001 242.3L70 240.5L68.9 238.8L68 237.1L67.3 235.6L66.6001 234.1L66 232.6L65.5 231.2L65.1001 229.9L64.8 228.5L64.6001 227.2L64.4 226L64.3 224.7V223.4L64.4 222.1L64.6001 220.9L64.8 219.6L65.1001 218.2L65.5 216.9L66 215.5L66.6001 214L67.3 212.5L68 211L68.9 209.3L70 207.6L71.1001 205.8L72.4 203.8L73.9 201.7L75.6001 199.4L77.4 197L79.5 194.4L81.8 191.5L84.5 188.4L87.4 185L90.7 181.2L94.3 177.1L98.4 172.6L102.8 167.7L107.7 162.4L113 156.8L118.6 150.8L124.6 144.5L130.7 138L136.8 131.5L142.9 125.1L148.9 118.8L154.5 112.8L159.9 107.2L164.8 102L169.3 97.2L173.4 92.8L177.1 88.8L180.5 85.2L183.6 81.9L186.3 78.9L188.8 76.2L191 73.7L193 71.4L194.9 69.4L196.6 67.5L198.1 65.7L199.5 64.1L200.8 62.7L201.9 61.3L203 60L204 58.9L204.9 57.8L205.8 56.7L206.5 55.8L207.3 54.9L208 54L208.6 53.2L209.2 52.5L209.7 51.8L210.3 51.1L210.8 50.5L211.2 49.8L211.7 49.3L212.1 48.7L212.4 48.2L212.8 47.7L213.2 47.2L213.5 46.8L213.8 46.3L214.1 45.9L214.4 45.5L214.6 45.1L214.9 44.8L215.1 44.4L215.4 44.1L215.6 43.7L215.8 43.4L216 43.1L216.2 42.8L216.4 42.5L216.5 42.3L216.7 42L216.9 41.7L217 41.5L217.2 41.2L217.3 41L217.5 40.8L217.6 40.6L217.7 40.3L217.8 40.1L218 39.9L218.1 39.7L218.2 39.5L218.3 39.4L218.4 39.2L218.5 39L218.6 38.8L218.7 38.7L218.8 38.5L218.9 38.3V38.2L219 38L219.1 37.9L219.2 37.7V37.6L219.3 37.4L219.4 37.3L219.5 37.2V37L219.6 36.9V36.8L219.7 36.7L219.8 36.6V36.4L219.9 36.3V36.2L220 36.1V36L220.1 35.9V35.8L220.2 35.7V35.6L220.3 35.5V35.4V35.3L220.4 35.2V35.1L220.5 35V34.9L220.6 34.8V34.7L220.7 34.6V34.5V34.4H220.8V34.3V34.2V34.1H220.9V34V33.9H221V33.8V33.7L221.1 33.6V33.5V33.4L221.2 33.3V33.2V33.1L221.3 33V32.9V32.8H221.4V32.7V32.6L221.5 32.5V32.4V32.3L221.6 32.2V32.1V32L221.7 31.9V31.8V31.7V31.6H221.8V31.5V31.4V31.3H221.9V31.2V31.1V31V30.9H222V30.8V30.7V30.6H222.1V30.5V30.4V30.3V30.2H222.2V30.1V30V29.9V29.8H222.3V29.7V29.6V29.5V29.4V29.3H222.4V29.2V29.1V29V28.9V28.8H222.5V28.7V28.6V28.5V28.4V28.3H222.6V28.2V28.1V28V27.9V27.8V27.7V27.6H222.7V27.5V27.4V27.3V27.2V27.1V27V26.9V26.8H222.8V26.7V26.6V26.5V26.4V26.3V26.2V26.1V26" stroke="white"/>
<path d="M24.8 224.1H24.9H25H25.1H25.2H25.3H25.4H25.5H25.6H25.7H25.8H25.9H26H26.1H26.2H26.3H26.4H26.5H26.6H26.7H26.8H26.9H27H27.1H27.2H27.3H27.4H27.5H27.6H27.7H27.8H27.9H28H28.1H28.2H28.3H28.4H28.5V224.2H28.6H28.7H28.8H28.9H29H29.1H29.2H29.3H29.4H29.5H29.6H29.7H29.8H29.9H30H30.1H30.2H30.3H30.4H30.5H30.6V224.3H30.7H30.8H30.9H31H31.1H31.2H31.3H31.4H31.5H31.6H31.7H31.8H31.9H32H32.1H32.2L32.3 224.4H32.4H32.5H32.6H32.7H32.8H32.9H33H33.1001H33.2H33.3H33.4H33.5L33.6001 224.5H33.7H33.8H33.9H34H34.1001H34.2H34.3H34.4H34.5H34.6001H34.7H34.8L34.9 224.6H35H35.1001H35.2H35.3H35.4H35.5H35.6001H35.7H35.9L36 224.7H36.1001H36.2H36.4H36.5H36.6001H36.8L36.9 224.8H37.1001H37.2H37.3H37.5H37.7L37.8 224.9H38H38.1001H38.3H38.5H38.7L38.9 225H39H39.2H39.4L39.6001 225.1H39.8H40.1001H40.3L40.5 225.2H40.7H41L41.2 225.3H41.5H41.7L42 225.4H42.3L42.5 225.5H42.8H43.1001L43.4 225.6H43.7L44.1001 225.7H44.4L44.8 225.8L45.1001 225.9H45.5L45.9 226L46.3 226.1H46.7L47.1001 226.2L47.6001 226.3L48 226.4L48.5 226.5L49 226.6L49.6001 226.7L50.1001 226.8L50.7 226.9L51.3 227L51.9 227.1L52.5 227.3L53.2 227.4L53.9 227.6L54.6001 227.7L55.4 227.9L56.2 228.1L57.1001 228.3L58 228.5L58.9 228.8L60 229.1L61 229.3L62.1001 229.6L63.3 230L64.6001 230.3L66 230.7L67.4 231.2L69 231.6L70.6001 232.2L72.4 232.7L74.3 233.4L76.3 234.1L78.5 234.9L80.9 235.7L83.5 236.7L86.4 237.8L89.5 239L92.8 240.3L96.5 241.8L100.6 243.5L105 245.4L109.9 247.6L115.2 249.9L121.1 252.6L127.6 255.4L134.6 258.6L142.2 261.9L150.4 265.4L159.1 268.8L168.3 272.3L177.8 275.4L187.6 278.2L197.5 280.4L207.6 282L217.8 282.8H227.9L238.1 282L248.2 280.4L258.1 278.2L267.9 275.4L277.4 272.3L286.6 268.8L295.3 265.4L303.5 261.9L311.1 258.6L318.1 255.4L324.6 252.6L330.5 249.9L335.8 247.6L340.7 245.4L345.1 243.5L349.2 241.8L352.9 240.3L356.2 239L359.3 237.8L362.2 236.7L364.8 235.7L367.2 234.9L369.4 234.1L371.4 233.4L373.3 232.7L375.1 232.2L376.7 231.6L378.3 231.2L379.7 230.7L381.1 230.3L382.4 230L383.6 229.6L384.7 229.3L385.7 229.1L386.8 228.8L387.7 228.5L388.6 228.3L389.5 228.1L390.3 227.9L391.1 227.7L391.8 227.6L392.5 227.4L393.2 227.3L393.8 227.1L394.4 227L395 226.9L395.6 226.8L396.1 226.7L396.7 226.6L397.2 226.5L397.7 226.4L398.1 226.3L398.6 226.2L399 226.1H399.4L399.8 226L400.2 225.9H400.6L400.9 225.8L401.3 225.7H401.6L402 225.6H402.3L402.6 225.5H402.9H403.2L403.4 225.4H403.7L404 225.3H404.2H404.5L404.7 225.2H405H405.2L405.4 225.1H405.6H405.9H406.1L406.3 225H406.5H406.7H406.8L407 224.9H407.2H407.4H407.6H407.7H407.9L408 224.8H408.2H408.4H408.5H408.6H408.8L408.9 224.7H409.1H409.2H409.3H409.5H409.6H409.7L409.8 224.6H410H410.1H410.2H410.3H410.4H410.5H410.6H410.7H410.8L410.9 224.5H411H411.1H411.2H411.3H411.4H411.5H411.6H411.7H411.8H411.9H412H412.1L412.2 224.4H412.3H412.4H412.5H412.6H412.7H412.8H412.9H413H413.1H413.2H413.3H413.4L413.5 224.3H413.6H413.7H413.8H413.9H414H414.1H414.2H414.3H414.4H414.5H414.6H414.7H414.8H414.9H415H415.1V224.2H415.2H415.3H415.4H415.5H415.6H415.7H415.8H415.9H416H416.1H416.2H416.3H416.4H416.5H416.6H416.7H416.8H416.9H417H417.1H417.2V224.1H417.3H417.4H417.5H417.6H417.7H417.8H417.9H418H418.1H418.2H418.3H418.4H418.5H418.6H418.7H418.8H418.9H419H419.1H419.2H419.3H419.4H419.5H419.6H419.7H419.8H419.9H420H420.1H420.2H420.3H420.4H420.5H420.6H420.7H420.8H420.9" stroke="white"/>
<path d="M24.8 224.1H24.9H25H25.1H25.2H25.3H25.4H25.5H25.6H25.7H25.8H25.9H26H26.1H26.2H26.3H26.4H26.5H26.6H26.7H26.8H26.9H27H27.1V224.2H27.2H27.3H27.4H27.5H27.6H27.7H27.8H27.9H28H28.1H28.2H28.3H28.4H28.5V224.3H28.6H28.7H28.8H28.9H29H29.1H29.2H29.3H29.4H29.5H29.6H29.7V224.4H29.8H29.9H30H30.1H30.2H30.3H30.4H30.5H30.6L30.7 224.5H30.8H30.9H31H31.1H31.2H31.3H31.4H31.5V224.6H31.6H31.7H31.8H31.9H32H32.1H32.2L32.3 224.7H32.4H32.5H32.6H32.7H32.8H32.9L33 224.8H33.1001H33.2H33.3H33.4H33.5H33.6001V224.9H33.7H33.8H33.9H34H34.1001H34.2L34.3 225H34.4H34.5H34.6001H34.7L34.8 225.1H34.9H35H35.1001H35.3H35.4L35.5 225.2H35.6001H35.7H35.8L36 225.3H36.1001H36.2H36.3L36.5 225.4H36.6001H36.7H36.9L37 225.5H37.2H37.3L37.5 225.6H37.6001H37.8L38 225.7H38.1001H38.3L38.5 225.8H38.6001L38.8 225.9H39L39.2 226H39.4L39.6001 226.1H39.8L40 226.2H40.3L40.5 226.3H40.7L41 226.4L41.2 226.5H41.5L41.7 226.6L42 226.7L42.3 226.8H42.6001L42.9 226.9L43.2 227L43.5 227.1L43.8 227.2L44.1001 227.3L44.5 227.4L44.8 227.5L45.2 227.6L45.6001 227.8L46 227.9L46.4 228L46.8 228.2L47.3 228.3L47.7 228.5L48.2 228.6L48.7 228.8L49.2 229L49.8 229.2L50.4 229.4L50.9 229.7L51.6001 229.9L52.2 230.2L52.9 230.4L53.6001 230.7L54.4 231L55.2 231.4L56 231.7L56.9 232.1L57.8 232.6L58.8 233L59.8 233.5L60.9 234L62.1001 234.6L63.3 235.2L64.7 235.9L66.1001 236.7L67.6001 237.5L69.3 238.4L71 239.4L73 240.4L75 241.6L77.3 243L79.7 244.4L82.3 246.1L85.2 247.9L88.4 249.9L91.9 252.2L95.7 254.7L99.8 257.6L104.4 260.7L109.5 264.2L114.9 268.1L120.9 272.3L127.3 276.8L134.1 281.6L141.3 286.6L148.8 291.7L156.4 296.8L164 301.7L171.6 306.3L179.1 310.5L186.3 314.2L193.4 317.3L200.2 319.8L206.8 321.7L213.3 323L219.7 323.6H226L232.4 323L238.9 321.7L245.5 319.8L252.3 317.3L259.4 314.2L266.6 310.5L274.1 306.3L281.7 301.7L289.3 296.8L296.9 291.7L304.4 286.6L311.6 281.6L318.4 276.8L324.8 272.3L330.8 268.1L336.2 264.2L341.3 260.7L345.9 257.6L350 254.7L353.8 252.2L357.3 249.9L360.5 247.9L363.4 246.1L366 244.4L368.4 243L370.7 241.6L372.7 240.4L374.7 239.4L376.4 238.4L378.1 237.5L379.6 236.7L381 235.9L382.4 235.2L383.6 234.6L384.8 234L385.9 233.5L386.9 233L387.9 232.6L388.8 232.1L389.7 231.7L390.5 231.4L391.3 231L392.1 230.7L392.8 230.4L393.5 230.2L394.1 229.9L394.8 229.7L395.3 229.4L395.9 229.2L396.5 229L397 228.8L397.5 228.6L398 228.5L398.4 228.3L398.9 228.2L399.3 228L399.7 227.9L400.1 227.8L400.5 227.6L400.9 227.5L401.2 227.4L401.6 227.3L401.9 227.2L402.2 227.1L402.5 227L402.8 226.9L403.1 226.8H403.4L403.7 226.7L404 226.6L404.2 226.5H404.5L404.7 226.4L405 226.3H405.2L405.4 226.2H405.7L405.9 226.1H406.1L406.3 226H406.5L406.7 225.9H406.9L407.1 225.8H407.2L407.4 225.7H407.6H407.7L407.9 225.6H408.1H408.2L408.4 225.5H408.5H408.7L408.8 225.4H409H409.1H409.2L409.4 225.3H409.5H409.6H409.7L409.9 225.2H410H410.1H410.2L410.3 225.1H410.4H410.6H410.7H410.8H410.9L411 225H411.1H411.2H411.3H411.4L411.5 224.9H411.6H411.7H411.8H411.9H412H412.1V224.8H412.2H412.3H412.4H412.5H412.6H412.7L412.8 224.7H412.9H413H413.1H413.2H413.3H413.4L413.5 224.6H413.6H413.7H413.8H413.9H414H414.1H414.2V224.5H414.3H414.4H414.5H414.6H414.7H414.8H414.9H415L415.1 224.4H415.2H415.3H415.4H415.5H415.6H415.7H415.8H415.9H416V224.3H416.1H416.2H416.3H416.4H416.5H416.6H416.7H416.8H416.9H417H417.1H417.2V224.2H417.3H417.4H417.5H417.6H417.7H417.8H417.9H418H418.1H418.2H418.3H418.4H418.5H418.6V224.1H418.7H418.8H418.9H419H419.1H419.2H419.3H419.4H419.5H419.6H419.7H419.8H419.9H420H420.1H420.2H420.3H420.4H420.5H420.6H420.7H420.8H420.9" stroke="white"/>
<path d="M24.8 224.1H24.9H25H25.1H25.2H25.3H25.4H25.5H25.6H25.7H25.8H25.9H26H26.1H26.2H26.3H26.4V224.2H26.5H26.6H26.7H26.8H26.9H27H27.1H27.2H27.3H27.4H27.5H27.6V224.3H27.7H27.8H27.9H28H28.1H28.2H28.3H28.4H28.5L28.6 224.4H28.7H28.8H28.9H29H29.1H29.2H29.3L29.4 224.5H29.5H29.6H29.7H29.8H29.9H30L30.1 224.6H30.2H30.3H30.4H30.5H30.6L30.7 224.7H30.8H30.9H31H31.1H31.2L31.3 224.8H31.4H31.5H31.6H31.7L31.8 224.9H31.9H32H32.1H32.2L32.3 225H32.4H32.5H32.6H32.7H32.8V225.1H32.9H33H33.1001H33.2L33.3 225.2H33.4H33.5H33.6001L33.7 225.3H33.8H33.9H34H34.1001L34.2 225.4H34.3H34.4L34.5 225.5H34.6001H34.7H34.8L34.9 225.6H35.1001H35.2L35.3 225.7H35.4H35.5H35.6001L35.7 225.8H35.9H36L36.1001 225.9H36.2L36.4 226H36.5H36.6001L36.8 226.1H36.9L37.1001 226.2H37.2L37.4 226.3H37.5L37.7 226.4H37.8L38 226.5H38.2L38.4 226.6H38.5L38.7 226.7L38.9 226.8H39.1001L39.3 226.9L39.5 227H39.7L39.9 227.1L40.2 227.2L40.4 227.3L40.6001 227.4L40.9 227.5L41.1001 227.6H41.4L41.6001 227.8L41.9 227.9L42.2 228L42.5 228.1L42.8 228.2L43.1001 228.3L43.4 228.5L43.7 228.6L44.1001 228.8L44.4 228.9L44.8 229.1L45.2 229.2L45.6001 229.4L46 229.6L46.4 229.8L46.8 230L47.3 230.2L47.8 230.5L48.3 230.7L48.8 231L49.4 231.2L49.9 231.5L50.5 231.9L51.1001 232.2L51.8 232.5L52.5 232.9L53.2 233.3L54 233.7L54.8 234.2L55.6001 234.7L56.5 235.2L57.5 235.8L58.5 236.4L59.6001 237.1L60.7 237.8L62 238.6L63.3 239.5L64.7 240.4L66.2 241.5L67.8 242.6L69.6001 243.8L71.5 245.2L73.6001 246.7L75.8 248.3L78.3 250.1L80.9 252.2L83.9 254.4L87.1001 256.9L90.7 259.7L94.5 262.9L98.8 266.3L103.5 270.1L108.6 274.3L114.2 278.9L120.2 283.9L126.5 289.2L133.2 294.7L140.1 300.4L147 306.1L154 311.7L160.8 317.1L167.4 322.2L173.7 326.8L179.6 331L185.3 334.8L190.5 338L195.5 340.8L200.2 343.1L204.6 345L208.9 346.5L213 347.6L217 348.4L220.9 348.7H224.8L228.7 348.4L232.7 347.6L236.8 346.5L241.1 345L245.5 343.1L250.2 340.8L255.2 338L260.4 334.8L266.1 331L272 326.8L278.3 322.2L284.9 317.1L291.7 311.7L298.7 306.1L305.6 300.4L312.5 294.7L319.2 289.2L325.5 283.9L331.5 278.9L337.1 274.3L342.2 270.1L346.9 266.3L351.2 262.9L355 259.7L358.6 256.9L361.8 254.4L364.8 252.2L367.4 250.1L369.9 248.3L372.1 246.7L374.2 245.2L376.1 243.8L377.9 242.6L379.5 241.5L381 240.4L382.4 239.5L383.7 238.6L385 237.8L386.1 237.1L387.2 236.4L388.2 235.8L389.2 235.2L390.1 234.7L390.9 234.2L391.7 233.7L392.5 233.3L393.2 232.9L393.9 232.5L394.6 232.2L395.2 231.9L395.8 231.5L396.3 231.2L396.9 231L397.4 230.7L397.9 230.5L398.4 230.2L398.9 230L399.3 229.8L399.7 229.6L400.1 229.4L400.5 229.2L400.9 229.1L401.3 228.9L401.6 228.8L402 228.6L402.3 228.5L402.6 228.3L402.9 228.2L403.2 228.1L403.5 228L403.8 227.9L404.1 227.8L404.3 227.6H404.6L404.8 227.5L405.1 227.4L405.3 227.3L405.5 227.2L405.8 227.1L406 227H406.2L406.4 226.9L406.6 226.8H406.8L407 226.7L407.2 226.6H407.3L407.5 226.5H407.7L407.9 226.4H408L408.2 226.3H408.3L408.5 226.2H408.6L408.8 226.1H408.9L409.1 226H409.2H409.3L409.5 225.9H409.6L409.7 225.8H409.8H410L410.1 225.7H410.2H410.3H410.4L410.5 225.6H410.6H410.8L410.9 225.5H411H411.1H411.2L411.3 225.4H411.4H411.5L411.6 225.3H411.7H411.8H411.9H412L412.1 225.2H412.2H412.3H412.4L412.5 225.1H412.6H412.7H412.8H412.9V225H413H413.1H413.2H413.3H413.4L413.5 224.9H413.6H413.7H413.8H413.9L414 224.8H414.1H414.2H414.3H414.4L414.5 224.7H414.6H414.7H414.8H414.9H415L415.1 224.6H415.2H415.3H415.4H415.5H415.6L415.7 224.5H415.8H415.9H416H416.1H416.2H416.3L416.4 224.4H416.5H416.6H416.7H416.8H416.9H417H417.1L417.2 224.3H417.3H417.4H417.5H417.6H417.7H417.8H417.9H418H418.1V224.2H418.2H418.3H418.4H418.5H418.6H418.7H418.8H418.9H419H419.1H419.2H419.3V224.1H419.4H419.5H419.6H419.7H419.8H419.9H420H420.1H420.2H420.3H420.4H420.5H420.6H420.7H420.8H420.9" stroke="white"/>
<path d="M24.8 224.1H24.9H25H25.1H25.2H25.3H25.4H25.5H25.6H25.7H25.8H25.9H26V224.2H26.1H26.2H26.3H26.4H26.5H26.6H26.7H26.8H26.9H27H27.1V224.3H27.2H27.3H27.4H27.5H27.6H27.7H27.8H27.9V224.4H28H28.1H28.2H28.3H28.4H28.5H28.6V224.5H28.7H28.8H28.9H29H29.1L29.2 224.6H29.3H29.4H29.5H29.6H29.7V224.7H29.8H29.9H30H30.1H30.2V224.8H30.3H30.4H30.5H30.6L30.7 224.9H30.8H30.9H31H31.1V225H31.2H31.3H31.4H31.5L31.6 225.1H31.7H31.8H31.9L32 225.2H32.1H32.2H32.3L32.4 225.3H32.5H32.6L32.7 225.4H32.8H32.9H33L33.1001 225.5H33.2H33.3H33.4V225.6H33.5H33.6001H33.7L33.8 225.7H33.9H34L34.1001 225.8H34.2H34.3L34.4 225.9H34.5H34.6001L34.7 226H34.8H34.9L35 226.1H35.1001H35.2L35.3 226.2H35.4L35.6001 226.3H35.7H35.8L35.9 226.4H36.1001L36.2 226.5H36.3L36.5 226.6H36.6001L36.7 226.7H36.9L37 226.8L37.2 226.9H37.3L37.5 227L37.6001 227.1H37.8L38 227.2L38.2 227.3H38.3L38.5 227.4L38.7 227.5L38.9 227.6L39.1001 227.7L39.3 227.8H39.5L39.7 227.9L40 228L40.2 228.1L40.4 228.3L40.7 228.4L40.9 228.5L41.2 228.6L41.4 228.7L41.7 228.9L42 229L42.3 229.2L42.6001 229.3L42.9 229.5L43.2 229.6L43.5 229.8L43.9 230L44.2 230.2L44.6001 230.4L45 230.6L45.4 230.8L45.8 231.1L46.2 231.3L46.7 231.6L47.2 231.8L47.7 232.1L48.2 232.4L48.7 232.8L49.3 233.1L49.9 233.5L50.5 233.9L51.1001 234.3L51.8 234.7L52.5 235.2L53.3 235.7L54.1001 236.3L54.9 236.8L55.8 237.5L56.8 238.1L57.8 238.9L58.9 239.6L60.1001 240.5L61.3 241.4L62.7 242.4L64.1001 243.5L65.7 244.7L67.3 246L69.2 247.5L71.1001 249.1L73.3 250.8L75.6001 252.7L78.2 254.9L81 257.3L84.1001 259.9L87.6001 262.8L91.3 266.1L95.4 269.7L100 273.7L104.9 278L110.3 282.8L116.1 288L122.2 293.5L128.7 299.2L135.3 305.1L142 311.1L148.7 317L155.2 322.7L161.5 328.1L167.4 333.1L172.9 337.7L178.1 341.9L182.9 345.6L187.4 348.9L191.5 351.8L195.3 354.4L198.8 356.6L202.2 358.4L205.3 360L208.2 361.4L211.1 362.4L213.8 363.3L216.4 363.9L219 364.3L221.6 364.5H224.1L226.7 364.3L229.3 363.9L231.9 363.3L234.6 362.4L237.5 361.4L240.4 360L243.5 358.4L246.9 356.6L250.4 354.4L254.2 351.8L258.3 348.9L262.8 345.6L267.6 341.9L272.8 337.7L278.3 333.1L284.2 328.1L290.5 322.7L297 317L303.7 311.1L310.4 305.1L317 299.2L323.5 293.5L329.6 288L335.4 282.8L340.8 278L345.7 273.7L350.3 269.7L354.4 266.1L358.1 262.8L361.6 259.9L364.7 257.3L367.5 254.9L370.1 252.7L372.4 250.8L374.6 249.1L376.5 247.5L378.4 246L380 244.7L381.6 243.5L383 242.4L384.4 241.4L385.6 240.5L386.8 239.6L387.9 238.9L388.9 238.1L389.9 237.5L390.8 236.8L391.6 236.3L392.4 235.7L393.2 235.2L393.9 234.7L394.6 234.3L395.2 233.9L395.8 233.5L396.4 233.1L397 232.8L397.5 232.4L398 232.1L398.5 231.8L399 231.6L399.5 231.3L399.9 231.1L400.3 230.8L400.7 230.6L401.1 230.4L401.5 230.2L401.8 230L402.2 229.8L402.5 229.6L402.8 229.5L403.1 229.3L403.4 229.2L403.7 229L404 228.9L404.3 228.7L404.5 228.6L404.8 228.5L405 228.4L405.3 228.3L405.5 228.1L405.7 228L406 227.9L406.2 227.8H406.4L406.6 227.7L406.8 227.6L407 227.5L407.2 227.4L407.4 227.3H407.5L407.7 227.2L407.9 227.1H408.1L408.2 227L408.4 226.9H408.5L408.7 226.8L408.8 226.7H409L409.1 226.6H409.2L409.4 226.5H409.5L409.6 226.4H409.8L409.9 226.3H410H410.1L410.3 226.2H410.4L410.5 226.1H410.6H410.7L410.8 226H410.9H411L411.1 225.9H411.2H411.3L411.4 225.8H411.5H411.6L411.7 225.7H411.8H411.9L412 225.6H412.1H412.2H412.3V225.5H412.4H412.5H412.6L412.7 225.4H412.8H412.9H413L413.1 225.3H413.2H413.3L413.4 225.2H413.5H413.6H413.7L413.8 225.1H413.9H414H414.1L414.2 225H414.3H414.4H414.5H414.6V224.9H414.7H414.8H414.9H415L415.1 224.8H415.2H415.3H415.4H415.5V224.7H415.6H415.7H415.8H415.9H416V224.6H416.1H416.2H416.3H416.4H416.5L416.6 224.5H416.7H416.8H416.9H417H417.1V224.4H417.2H417.3H417.4H417.5H417.6H417.7H417.8V224.3H417.9H418H418.1H418.2H418.3H418.4H418.5H418.6V224.2H418.7H418.8H418.9H419H419.1H419.2H419.3H419.4H419.5H419.6H419.7V224.1H419.8H419.9H420H420.1H420.2H420.3H420.4H420.5H420.6H420.7H420.8H420.9" stroke="white"/>
<path d="M24.8 224.1H24.9H25H25.1H25.2H25.3H25.4H25.5H25.6H25.7H25.8V224.2H25.9H26H26.1H26.2H26.3H26.4H26.5H26.6H26.7V224.3H26.8H26.9H27H27.1H27.2H27.3H27.4V224.4H27.5H27.6H27.7H27.8H27.9H28V224.5H28.1H28.2H28.3H28.4H28.5H28.6V224.6H28.7H28.8H28.9H29L29.1 224.7H29.2H29.3H29.4H29.5V224.8H29.6H29.7H29.8H29.9L30 224.9H30.1H30.2H30.3V225H30.4H30.5H30.6H30.7V225.1H30.8H30.9H31L31.1 225.2H31.2H31.3H31.4V225.3H31.5H31.6H31.7V225.4H31.8H31.9H32L32.1 225.5H32.2H32.3L32.4 225.6H32.5H32.6L32.7 225.7H32.8H32.9L33 225.8H33.1001H33.2V225.9H33.3H33.4H33.5L33.6001 226H33.7L33.8 226.1H33.9H34L34.1001 226.2H34.2H34.3L34.4 226.3H34.5L34.6001 226.4H34.7H34.8L34.9 226.5H35L35.1001 226.6H35.2L35.3 226.7H35.4L35.6001 226.8H35.7L35.8 226.9H35.9L36.1001 227H36.2L36.3 227.1L36.5 227.2H36.6001L36.7 227.3L36.9 227.4H37L37.2 227.5L37.4 227.6L37.5 227.7H37.7L37.9 227.8L38 227.9L38.2 228L38.4 228.1L38.6001 228.2L38.8 228.3L39 228.4L39.2 228.5L39.4 228.6L39.6001 228.7L39.8 228.8L40.1001 229L40.3 229.1L40.5 229.2L40.8 229.4L41.1001 229.5L41.3 229.7L41.6001 229.8L41.9 230L42.2 230.2L42.5 230.3L42.8 230.5L43.1001 230.7L43.5 230.9L43.8 231.1L44.2 231.4L44.6001 231.6L45 231.9L45.4 232.1L45.8 232.4L46.3 232.7L46.8 233L47.2 233.4L47.8 233.7L48.3 234.1L48.9 234.5L49.5 234.9L50.1001 235.3L50.7 235.8L51.4 236.3L52.2 236.8L52.9 237.4L53.8 238L54.6001 238.7L55.5 239.4L56.5 240.2L57.6001 241L58.7 241.9L59.9 242.8L61.2 243.9L62.6001 245L64.1001 246.3L65.7 247.6L67.5 249.1L69.4 250.8L71.5 252.6L73.8 254.6L76.3 256.8L79.1001 259.2L82.1001 261.9L85.5 264.9L89.1001 268.2L93.2 271.9L97.6001 276L102.5 280.4L107.8 285.3L113.5 290.6L119.5 296.2L125.8 302L132.3 308.1L138.9 314.2L145.4 320.2L151.8 326L157.9 331.6L163.7 336.8L169.1 341.6L174 345.9L178.6 349.9L182.8 353.4L186.7 356.6L190.3 359.4L193.5 361.8L196.6 364L199.3 366L201.9 367.7L204.4 369.1L206.7 370.4L208.8 371.5L210.9 372.4L212.9 373.2L214.8 373.9L216.6 374.4L218.4 374.7L220.2 375L222 375.1H223.7L225.5 375L227.3 374.7L229.1 374.4L230.9 373.9L232.8 373.2L234.8 372.4L236.9 371.5L239 370.4L241.3 369.1L243.8 367.7L246.4 366L249.1 364L252.2 361.8L255.4 359.4L259 356.6L262.9 353.4L267.1 349.9L271.7 345.9L276.6 341.6L282 336.8L287.8 331.6L293.9 326L300.3 320.2L306.8 314.2L313.4 308.1L319.9 302L326.2 296.2L332.2 290.6L337.9 285.3L343.2 280.4L348.1 276L352.5 271.9L356.6 268.2L360.2 264.9L363.6 261.9L366.6 259.2L369.4 256.8L371.9 254.6L374.2 252.6L376.3 250.8L378.2 249.1L380 247.6L381.6 246.3L383.1 245L384.5 243.9L385.8 242.8L387 241.9L388.1 241L389.2 240.2L390.2 239.4L391.1 238.7L391.9 238L392.8 237.4L393.5 236.8L394.3 236.3L395 235.8L395.6 235.3L396.2 234.9L396.8 234.5L397.4 234.1L397.9 233.7L398.5 233.4L398.9 233L399.4 232.7L399.9 232.4L400.3 232.1L400.7 231.9L401.1 231.6L401.5 231.4L401.9 231.1L402.2 230.9L402.6 230.7L402.9 230.5L403.2 230.3L403.5 230.2L403.8 230L404.1 229.8L404.4 229.7L404.6 229.5L404.9 229.4L405.2 229.2L405.4 229.1L405.6 229L405.9 228.8L406.1 228.7L406.3 228.6L406.5 228.5L406.7 228.4L406.9 228.3L407.1 228.2L407.3 228.1L407.5 228L407.7 227.9L407.8 227.8L408 227.7H408.2L408.3 227.6L408.5 227.5L408.7 227.4H408.8L409 227.3L409.1 227.2H409.2L409.4 227.1L409.5 227H409.6L409.8 226.9H409.9L410 226.8H410.1L410.3 226.7H410.4L410.5 226.6H410.6L410.7 226.5H410.8L410.9 226.4H411H411.1L411.2 226.3H411.3L411.4 226.2H411.5H411.6L411.7 226.1H411.8H411.9L412 226H412.1L412.2 225.9H412.3H412.4H412.5V225.8H412.6H412.7L412.8 225.7H412.9H413L413.1 225.6H413.2H413.3L413.4 225.5H413.5H413.6L413.7 225.4H413.8H413.9H414V225.3H414.1H414.2H414.3V225.2H414.4H414.5H414.6L414.7 225.1H414.8H414.9H415V225H415.1H415.2H415.3H415.4V224.9H415.5H415.6H415.7L415.8 224.8H415.9H416H416.1H416.2V224.7H416.3H416.4H416.5H416.6L416.7 224.6H416.8H416.9H417H417.1V224.5H417.2H417.3H417.4H417.5H417.6H417.7V224.4H417.8H417.9H418H418.1H418.2H418.3V224.3H418.4H418.5H418.6H418.7H418.8H418.9H419V224.2H419.1H419.2H419.3H419.4H419.5H419.6H419.7H419.8H419.9V224.1H420H420.1H420.2H420.3H420.4H420.5H420.6H420.7H420.8H420.9" stroke="white"/>
<path d="M24.8 224.1H24.9H25H25.1H25.2H25.3H25.4H25.5H25.6V224.2H25.7H25.8H25.9H26H26.1H26.2H26.3H26.4V224.3H26.5H26.6H26.7H26.8H26.9H27H27.1V224.4H27.2H27.3H27.4H27.5H27.6V224.5H27.7H27.8H27.9H28H28.1V224.6H28.2H28.3H28.4H28.5H28.6V224.7H28.7H28.8H28.9H29V224.8H29.1H29.2H29.3H29.4V224.9H29.5H29.6H29.7V225H29.8H29.9H30H30.1V225.1H30.2H30.3H30.4V225.2H30.5H30.6H30.7L30.8 225.3H30.9H31L31.1 225.4H31.2H31.3L31.4 225.5H31.5H31.6V225.6H31.7H31.8L31.9 225.7H32H32.1L32.2 225.8H32.3H32.4L32.5 225.9H32.6H32.7V226H32.8H32.9V226.1H33H33.1001H33.2V226.2H33.3H33.4L33.5 226.3H33.6001L33.7 226.4H33.8L33.9 226.5H34L34.1001 226.6H34.2H34.3L34.4 226.7H34.5L34.6001 226.8H34.7L34.8 226.9H34.9L35 227H35.1001L35.2 227.1H35.4L35.5 227.2L35.6001 227.3H35.7L35.8 227.4H36L36.1001 227.5L36.2 227.6L36.4 227.7H36.5L36.7 227.8L36.8 227.9L37 228H37.1001L37.3 228.1L37.5 228.2L37.6001 228.3L37.8 228.4L38 228.5L38.2 228.6L38.3 228.7L38.5 228.8L38.7 228.9L38.9 229.1L39.1001 229.2L39.4 229.3L39.6001 229.4L39.8 229.6L40 229.7L40.3 229.9L40.5 230L40.8 230.2L41.1001 230.4L41.3 230.5L41.6001 230.7L41.9 230.9L42.2 231.1L42.5 231.3L42.9 231.5L43.2 231.8L43.6001 232L43.9 232.3L44.3 232.5L44.7 232.8L45.1001 233.1L45.6001 233.4L46 233.7L46.5 234.1L47 234.5L47.5 234.8L48.1001 235.2L48.6001 235.7L49.3 236.1L49.9 236.6L50.6001 237.2L51.3 237.7L52 238.3L52.8 238.9L53.7 239.6L54.6001 240.4L55.5 241.1L56.6001 242L57.7 242.9L58.8 243.9L60.1001 245L61.5 246.1L62.9 247.4L64.5 248.8L66.3 250.3L68.2 252L70.2 253.9L72.5 255.9L75 258.1L77.7 260.6L80.7 263.3L84 266.4L87.6001 269.8L91.6001 273.5L96 277.6L100.8 282.1L106 287L111.6 292.4L117.6 298L123.9 304L130.3 310.1L136.8 316.2L143.3 322.3L149.6 328.3L155.6 333.9L161.2 339.2L166.5 344.1L171.4 348.5L175.9 352.6L180 356.2L183.8 359.5L187.2 362.4L190.3 365.1L193.2 367.4L195.8 369.5L198.2 371.3L200.5 373L202.6 374.5L204.6 375.8L206.4 376.9L208.1 378L209.8 378.9L211.3 379.6L212.8 380.3L214.3 380.9L215.7 381.4L217 381.8L218.4 382.1L219.7 382.3L220.9 382.5L222.2 382.6H223.5L224.8 382.5L226 382.3L227.3 382.1L228.7 381.8L230 381.4L231.4 380.9L232.9 380.3L234.4 379.6L235.9 378.9L237.6 378L239.3 376.9L241.1 375.8L243.1 374.5L245.2 373L247.5 371.3L249.9 369.5L252.5 367.4L255.4 365.1L258.5 362.4L261.9 359.5L265.7 356.2L269.8 352.6L274.3 348.5L279.2 344.1L284.5 339.2L290.1 333.9L296.1 328.3L302.4 322.3L308.9 316.2L315.4 310.1L321.8 304L328.1 298L334.1 292.4L339.7 287L344.9 282.1L349.7 277.6L354.1 273.5L358.1 269.8L361.7 266.4L365 263.3L368 260.6L370.7 258.1L373.2 255.9L375.5 253.9L377.5 252L379.4 250.3L381.2 248.8L382.8 247.4L384.2 246.1L385.6 245L386.9 243.9L388 242.9L389.1 242L390.2 241.1L391.1 240.4L392 239.6L392.9 238.9L393.7 238.3L394.4 237.7L395.1 237.2L395.8 236.6L396.4 236.1L397.1 235.7L397.6 235.2L398.2 234.8L398.7 234.5L399.2 234.1L399.7 233.7L400.1 233.4L400.6 233.1L401 232.8L401.4 232.5L401.8 232.3L402.1 232L402.5 231.8L402.8 231.5L403.2 231.3L403.5 231.1L403.8 230.9L404.1 230.7L404.4 230.5L404.6 230.4L404.9 230.2L405.2 230L405.4 229.9L405.7 229.7L405.9 229.6L406.1 229.4L406.3 229.3L406.6 229.2L406.8 229.1L407 228.9L407.2 228.8L407.4 228.7L407.5 228.6L407.7 228.5L407.9 228.4L408.1 228.3L408.2 228.2L408.4 228.1L408.6 228H408.7L408.9 227.9L409 227.8L409.2 227.7H409.3L409.5 227.6L409.6 227.5L409.7 227.4H409.9L410 227.3H410.1L410.2 227.2L410.3 227.1H410.5L410.6 227H410.7L410.8 226.9H410.9L411 226.8H411.1L411.2 226.7H411.3L411.4 226.6H411.5H411.6L411.7 226.5H411.8L411.9 226.4H412L412.1 226.3H412.2L412.3 226.2H412.4H412.5V226.1H412.6H412.7H412.8V226H412.9H413V225.9H413.1H413.2L413.3 225.8H413.4H413.5L413.6 225.7H413.7H413.8L413.9 225.6H414H414.1V225.5H414.2H414.3L414.4 225.4H414.5H414.6L414.7 225.3H414.8H414.9L415 225.2H415.1H415.2H415.3V225.1H415.4H415.5H415.6V225H415.7H415.8H415.9H416V224.9H416.1H416.2H416.3V224.8H416.4H416.5H416.6H416.7V224.7H416.8H416.9H417H417.1V224.6H417.2H417.3H417.4H417.5H417.6V224.5H417.7H417.8H417.9H418H418.1V224.4H418.2H418.3H418.4H418.5H418.6V224.3H418.7H418.8H418.9H419H419.1H419.2H419.3V224.2H419.4H419.5H419.6H419.7H419.8H419.9H420H420.1V224.1H420.2H420.3H420.4H420.5H420.6H420.7H420.8H420.9" stroke="white"/>
<path d="M24.8 224H24.9H25H25.1H25.2H25.3H25.4H25.5H25.6H25.7H25.8H25.9H26H26.1H26.2H26.3H26.4H26.5H26.6H26.7H26.8H26.9H27H27.1H27.2H27.3H27.4H27.5H27.6H27.7H27.8H27.9H28H28.1H28.2H28.3H28.4H28.5V223.9H28.6H28.7H28.8H28.9H29H29.1H29.2H29.3H29.4H29.5H29.6H29.7H29.8H29.9H30H30.1H30.2H30.3H30.4H30.5H30.6V223.8H30.7H30.8H30.9H31H31.1H31.2H31.3H31.4H31.5H31.6H31.7H31.8H31.9H32H32.1H32.2L32.3 223.7H32.4H32.5H32.6H32.7H32.8H32.9H33H33.1001H33.2H33.3H33.4H33.5L33.6001 223.6H33.7H33.8H33.9H34H34.1001H34.2H34.3H34.4H34.5H34.6001H34.7H34.8L34.9 223.5H35H35.1001H35.2H35.3H35.4H35.5H35.6001H35.7H35.9L36 223.4H36.1001H36.2H36.4H36.5H36.6001H36.8L36.9 223.3H37.1001H37.2H37.3H37.5H37.7L37.8 223.2H38H38.1001H38.3H38.5H38.7L38.9 223.1H39H39.2H39.4L39.6001 223H39.8H40.1001H40.3L40.5 222.9H40.7H41L41.2 222.8H41.5H41.7L42 222.7H42.3L42.5 222.6H42.8H43.1001L43.4 222.5H43.7L44.1001 222.4H44.4L44.8 222.3L45.1001 222.2H45.5L45.9 222.1L46.3 222H46.7L47.1001 221.9L47.6001 221.8L48 221.7L48.5 221.6L49 221.5L49.6001 221.4L50.1001 221.3L50.7 221.2L51.3 221.1L51.9 221L52.5 220.8L53.2 220.7L53.9 220.5L54.6001 220.4L55.4 220.2L56.2 220L57.1001 219.8L58 219.6L58.9 219.3L60 219L61 218.8L62.1001 218.5L63.3 218.1L64.6001 217.8L66 217.4L67.4 216.9L69 216.5L70.6001 215.9L72.4 215.4L74.3 214.7L76.3 214L78.5 213.2L80.9 212.4L83.5 211.4L86.4 210.3L89.5 209.1L92.8 207.8L96.5 206.3L100.6 204.6L105 202.7L109.9 200.5L115.2 198.2L121.1 195.5L127.6 192.7L134.6 189.5L142.2 186.2L150.4 182.7L159.1 179.3L168.3 175.8L177.8 172.7L187.6 169.9L197.5 167.7L207.6 166.1L217.8 165.3H227.9L238.1 166.1L248.2 167.7L258.1 169.9L267.9 172.7L277.4 175.8L286.6 179.3L295.3 182.7L303.5 186.2L311.1 189.5L318.1 192.7L324.6 195.5L330.5 198.2L335.8 200.5L340.7 202.7L345.1 204.6L349.2 206.3L352.9 207.8L356.2 209.1L359.3 210.3L362.2 211.4L364.8 212.4L367.2 213.2L369.4 214L371.4 214.7L373.3 215.4L375.1 215.9L376.7 216.5L378.3 216.9L379.7 217.4L381.1 217.8L382.4 218.1L383.6 218.5L384.7 218.8L385.7 219L386.8 219.3L387.7 219.6L388.6 219.8L389.5 220L390.3 220.2L391.1 220.4L391.8 220.5L392.5 220.7L393.2 220.8L393.8 221L394.4 221.1L395 221.2L395.6 221.3L396.1 221.4L396.7 221.5L397.2 221.6L397.7 221.7L398.1 221.8L398.6 221.9L399 222H399.4L399.8 222.1L400.2 222.2H400.6L400.9 222.3L401.3 222.4H401.6L402 222.5H402.3L402.6 222.6H402.9H403.2L403.4 222.7H403.7L404 222.8H404.2H404.5L404.7 222.9H405H405.2L405.4 223H405.6H405.9H406.1L406.3 223.1H406.5H406.7H406.8L407 223.2H407.2H407.4H407.6H407.7H407.9L408 223.3H408.2H408.4H408.5H408.6H408.8L408.9 223.4H409.1H409.2H409.3H409.5H409.6H409.7L409.8 223.5H410H410.1H410.2H410.3H410.4H410.5H410.6H410.7H410.8L410.9 223.6H411H411.1H411.2H411.3H411.4H411.5H411.6H411.7H411.8H411.9H412H412.1L412.2 223.7H412.3H412.4H412.5H412.6H412.7H412.8H412.9H413H413.1H413.2H413.3H413.4L413.5 223.8H413.6H413.7H413.8H413.9H414H414.1H414.2H414.3H414.4H414.5H414.6H414.7H414.8H414.9H415H415.1V223.9H415.2H415.3H415.4H415.5H415.6H415.7H415.8H415.9H416H416.1H416.2H416.3H416.4H416.5H416.6H416.7H416.8H416.9H417H417.1H417.2V224H417.3H417.4H417.5H417.6H417.7H417.8H417.9H418H418.1H418.2H418.3H418.4H418.5H418.6H418.7H418.8H418.9H419H419.1H419.2H419.3H419.4H419.5H419.6H419.7H419.8H419.9H420H420.1H420.2H420.3H420.4H420.5H420.6H420.7H420.8H420.9" stroke="white"/>
<path d="M24.8 224H24.9H25H25.1H25.2H25.3H25.4H25.5H25.6H25.7H25.8H25.9H26H26.1H26.2H26.3H26.4H26.5H26.6H26.7H26.8H26.9H27H27.1V223.9H27.2H27.3H27.4H27.5H27.6H27.7H27.8H27.9H28H28.1H28.2H28.3H28.4H28.5V223.8H28.6H28.7H28.8H28.9H29H29.1H29.2H29.3H29.4H29.5H29.6H29.7V223.7H29.8H29.9H30H30.1H30.2H30.3H30.4H30.5H30.6L30.7 223.6H30.8H30.9H31H31.1H31.2H31.3H31.4H31.5V223.5H31.6H31.7H31.8H31.9H32H32.1H32.2L32.3 223.4H32.4H32.5H32.6H32.7H32.8H32.9L33 223.3H33.1001H33.2H33.3H33.4H33.5H33.6001V223.2H33.7H33.8H33.9H34H34.1001H34.2L34.3 223.1H34.4H34.5H34.6001H34.7L34.8 223H34.9H35H35.1001H35.3H35.4L35.5 222.9H35.6001H35.7H35.8L36 222.8H36.1001H36.2H36.3L36.5 222.7H36.6001H36.7H36.9L37 222.6H37.2H37.3L37.5 222.5H37.6001H37.8L38 222.4H38.1001H38.3L38.5 222.3H38.6001L38.8 222.2H39L39.2 222.1H39.4L39.6001 222H39.8L40 221.9H40.3L40.5 221.8H40.7L41 221.7L41.2 221.6H41.5L41.7 221.5L42 221.4L42.3 221.3H42.6001L42.9 221.2L43.2 221.1L43.5 221L43.8 220.9L44.1001 220.8L44.5 220.7L44.8 220.6L45.2 220.5L45.6001 220.3L46 220.2L46.4 220.1L46.8 219.9L47.3 219.8L47.7 219.6L48.2 219.5L48.7 219.3L49.2 219.1L49.8 218.9L50.4 218.7L50.9 218.4L51.6001 218.2L52.2 217.9L52.9 217.7L53.6001 217.4L54.4 217.1L55.2 216.7L56 216.4L56.9 216L57.8 215.5L58.8 215.1L59.8 214.6L60.9 214.1L62.1001 213.5L63.3 212.9L64.7 212.2L66.1001 211.4L67.6001 210.6L69.3 209.7L71 208.7L73 207.7L75 206.5L77.3 205.1L79.7 203.7L82.3 202L85.2 200.2L88.4 198.2L91.9 195.9L95.7 193.4L99.8 190.5L104.4 187.4L109.5 183.9L114.9 180L120.9 175.8L127.3 171.3L134.1 166.5L141.3 161.5L148.8 156.4L156.4 151.3L164 146.4L171.6 141.8L179.1 137.6L186.3 133.9L193.4 130.8L200.2 128.3L206.8 126.4L213.3 125.1L219.7 124.5H226L232.4 125.1L238.9 126.4L245.5 128.3L252.3 130.8L259.4 133.9L266.6 137.6L274.1 141.8L281.7 146.4L289.3 151.3L296.9 156.4L304.4 161.5L311.6 166.5L318.4 171.3L324.8 175.8L330.8 180L336.2 183.9L341.3 187.4L345.9 190.5L350 193.4L353.8 195.9L357.3 198.2L360.5 200.2L363.4 202L366 203.7L368.4 205.1L370.7 206.5L372.7 207.7L374.7 208.7L376.4 209.7L378.1 210.6L379.6 211.4L381 212.2L382.4 212.9L383.6 213.5L384.8 214.1L385.9 214.6L386.9 215.1L387.9 215.5L388.8 216L389.7 216.4L390.5 216.7L391.3 217.1L392.1 217.4L392.8 217.7L393.5 217.9L394.1 218.2L394.8 218.4L395.3 218.7L395.9 218.9L396.5 219.1L397 219.3L397.5 219.5L398 219.6L398.4 219.8L398.9 219.9L399.3 220.1L399.7 220.2L400.1 220.3L400.5 220.5L400.9 220.6L401.2 220.7L401.6 220.8L401.9 220.9L402.2 221L402.5 221.1L402.8 221.2L403.1 221.3H403.4L403.7 221.4L404 221.5L404.2 221.6H404.5L404.7 221.7L405 221.8H405.2L405.4 221.9H405.7L405.9 222H406.1L406.3 222.1H406.5L406.7 222.2H406.9L407.1 222.3H407.2L407.4 222.4H407.6H407.7L407.9 222.5H408.1H408.2L408.4 222.6H408.5H408.7L408.8 222.7H409H409.1H409.2L409.4 222.8H409.5H409.6H409.7L409.9 222.9H410H410.1H410.2L410.3 223H410.4H410.6H410.7H410.8H410.9L411 223.1H411.1H411.2H411.3H411.4L411.5 223.2H411.6H411.7H411.8H411.9H412H412.1V223.3H412.2H412.3H412.4H412.5H412.6H412.7L412.8 223.4H412.9H413H413.1H413.2H413.3H413.4L413.5 223.5H413.6H413.7H413.8H413.9H414H414.1H414.2V223.6H414.3H414.4H414.5H414.6H414.7H414.8H414.9H415L415.1 223.7H415.2H415.3H415.4H415.5H415.6H415.7H415.8H415.9H416V223.8H416.1H416.2H416.3H416.4H416.5H416.6H416.7H416.8H416.9H417H417.1H417.2V223.9H417.3H417.4H417.5H417.6H417.7H417.8H417.9H418H418.1H418.2H418.3H418.4H418.5H418.6V224H418.7H418.8H418.9H419H419.1H419.2H419.3H419.4H419.5H419.6H419.7H419.8H419.9H420H420.1H420.2H420.3H420.4H420.5H420.6H420.7H420.8H420.9" stroke="white"/>
<path d="M24.8 224H24.9H25H25.1H25.2H25.3H25.4H25.5H25.6H25.7H25.8H25.9H26H26.1H26.2H26.3H26.4V223.9H26.5H26.6H26.7H26.8H26.9H27H27.1H27.2H27.3H27.4H27.5H27.6V223.8H27.7H27.8H27.9H28H28.1H28.2H28.3H28.4H28.5L28.6 223.7H28.7H28.8H28.9H29H29.1H29.2H29.3L29.4 223.6H29.5H29.6H29.7H29.8H29.9H30L30.1 223.5H30.2H30.3H30.4H30.5H30.6L30.7 223.4H30.8H30.9H31H31.1H31.2L31.3 223.3H31.4H31.5H31.6H31.7L31.8 223.2H31.9H32H32.1H32.2L32.3 223.1H32.4H32.5H32.6H32.7H32.8V223H32.9H33H33.1001H33.2L33.3 222.9H33.4H33.5H33.6001L33.7 222.8H33.8H33.9H34H34.1001L34.2 222.7H34.3H34.4L34.5 222.6H34.6001H34.7H34.8L34.9 222.5H35.1001H35.2L35.3 222.4H35.4H35.5H35.6001L35.7 222.3H35.9H36L36.1001 222.2H36.2L36.4 222.1H36.5H36.6001L36.8 222H36.9L37.1001 221.9H37.2L37.4 221.8H37.5L37.7 221.7H37.8L38 221.6H38.2L38.4 221.5H38.5L38.7 221.4L38.9 221.3H39.1001L39.3 221.2L39.5 221.1H39.7L39.9 221L40.2 220.9L40.4 220.8L40.6001 220.7L40.9 220.6L41.1001 220.5H41.4L41.6001 220.3L41.9 220.2L42.2 220.1L42.5 220L42.8 219.9L43.1001 219.8L43.4 219.6L43.7 219.5L44.1001 219.3L44.4 219.2L44.8 219L45.2 218.9L45.6001 218.7L46 218.5L46.4 218.3L46.8 218.1L47.3 217.9L47.8 217.6L48.3 217.4L48.8 217.1L49.4 216.9L49.9 216.6L50.5 216.2L51.1001 215.9L51.8 215.6L52.5 215.2L53.2 214.8L54 214.4L54.8 213.9L55.6001 213.4L56.5 212.9L57.5 212.3L58.5 211.7L59.6001 211L60.7 210.3L62 209.5L63.3 208.6L64.7 207.7L66.2 206.6L67.8 205.5L69.6001 204.3L71.5 202.9L73.6001 201.4L75.8 199.8L78.3 198L80.9 195.9L83.9 193.7L87.1001 191.2L90.7 188.4L94.5 185.2L98.8 181.8L103.5 178L108.6 173.8L114.2 169.2L120.2 164.2L126.5 158.9L133.2 153.4L140.1 147.7L147 142L154 136.4L160.8 131L167.4 125.9L173.7 121.3L179.6 117.1L185.3 113.3L190.5 110.1L195.5 107.3L200.2 105L204.6 103.1L208.9 101.6L213 100.5L217 99.7L220.9 99.4H224.8L228.7 99.7L232.7 100.5L236.8 101.6L241.1 103.1L245.5 105L250.2 107.3L255.2 110.1L260.4 113.3L266.1 117.1L272 121.3L278.3 125.9L284.9 131L291.7 136.4L298.7 142L305.6 147.7L312.5 153.4L319.2 158.9L325.5 164.2L331.5 169.2L337.1 173.8L342.2 178L346.9 181.8L351.2 185.2L355 188.4L358.6 191.2L361.8 193.7L364.8 195.9L367.4 198L369.9 199.8L372.1 201.4L374.2 202.9L376.1 204.3L377.9 205.5L379.5 206.6L381 207.7L382.4 208.6L383.7 209.5L385 210.3L386.1 211L387.2 211.7L388.2 212.3L389.2 212.9L390.1 213.4L390.9 213.9L391.7 214.4L392.5 214.8L393.2 215.2L393.9 215.6L394.6 215.9L395.2 216.2L395.8 216.6L396.3 216.9L396.9 217.1L397.4 217.4L397.9 217.6L398.4 217.9L398.9 218.1L399.3 218.3L399.7 218.5L400.1 218.7L400.5 218.9L400.9 219L401.3 219.2L401.6 219.3L402 219.5L402.3 219.6L402.6 219.8L402.9 219.9L403.2 220L403.5 220.1L403.8 220.2L404.1 220.3L404.3 220.5H404.6L404.8 220.6L405.1 220.7L405.3 220.8L405.5 220.9L405.8 221L406 221.1H406.2L406.4 221.2L406.6 221.3H406.8L407 221.4L407.2 221.5H407.3L407.5 221.6H407.7L407.9 221.7H408L408.2 221.8H408.3L408.5 221.9H408.6L408.8 222H408.9L409.1 222.1H409.2H409.3L409.5 222.2H409.6L409.7 222.3H409.8H410L410.1 222.4H410.2H410.3H410.4L410.5 222.5H410.6H410.8L410.9 222.6H411H411.1H411.2L411.3 222.7H411.4H411.5L411.6 222.8H411.7H411.8H411.9H412L412.1 222.9H412.2H412.3H412.4L412.5 223H412.6H412.7H412.8H412.9V223.1H413H413.1H413.2H413.3H413.4L413.5 223.2H413.6H413.7H413.8H413.9L414 223.3H414.1H414.2H414.3H414.4L414.5 223.4H414.6H414.7H414.8H414.9H415L415.1 223.5H415.2H415.3H415.4H415.5H415.6L415.7 223.6H415.8H415.9H416H416.1H416.2H416.3L416.4 223.7H416.5H416.6H416.7H416.8H416.9H417H417.1L417.2 223.8H417.3H417.4H417.5H417.6H417.7H417.8H417.9H418H418.1V223.9H418.2H418.3H418.4H418.5H418.6H418.7H418.8H418.9H419H419.1H419.2H419.3V224H419.4H419.5H419.6H419.7H419.8H419.9H420H420.1H420.2H420.3H420.4H420.5H420.6H420.7H420.8H420.9" stroke="white"/>
<path d="M24.8 224H24.9H25H25.1H25.2H25.3H25.4H25.5H25.6H25.7H25.8H25.9H26V223.9H26.1H26.2H26.3H26.4H26.5H26.6H26.7H26.8H26.9H27H27.1V223.8H27.2H27.3H27.4H27.5H27.6H27.7H27.8H27.9V223.7H28H28.1H28.2H28.3H28.4H28.5H28.6V223.6H28.7H28.8H28.9H29H29.1L29.2 223.5H29.3H29.4H29.5H29.6H29.7V223.4H29.8H29.9H30H30.1H30.2V223.3H30.3H30.4H30.5H30.6L30.7 223.2H30.8H30.9H31H31.1V223.1H31.2H31.3H31.4H31.5L31.6 223H31.7H31.8H31.9L32 222.9H32.1H32.2H32.3L32.4 222.8H32.5H32.6L32.7 222.7H32.8H32.9H33L33.1001 222.6H33.2H33.3H33.4V222.5H33.5H33.6001H33.7L33.8 222.4H33.9H34L34.1001 222.3H34.2H34.3L34.4 222.2H34.5H34.6001L34.7 222.1H34.8H34.9L35 222H35.1001H35.2L35.3 221.9H35.4L35.6001 221.8H35.7H35.8L35.9 221.7H36.1001L36.2 221.6H36.3L36.5 221.5H36.6001L36.7 221.4H36.9L37 221.3L37.2 221.2H37.3L37.5 221.1L37.6001 221H37.8L38 220.9L38.2 220.8H38.3L38.5 220.7L38.7 220.6L38.9 220.5L39.1001 220.4L39.3 220.3H39.5L39.7 220.2L40 220.1L40.2 220L40.4 219.8L40.7 219.7L40.9 219.6L41.2 219.5L41.4 219.4L41.7 219.2L42 219.1L42.3 218.9L42.6001 218.8L42.9 218.6L43.2 218.5L43.5 218.3L43.9 218.1L44.2 217.9L44.6001 217.7L45 217.5L45.4 217.3L45.8 217L46.2 216.8L46.7 216.5L47.2 216.3L47.7 216L48.2 215.7L48.7 215.3L49.3 215L49.9 214.6L50.5 214.2L51.1001 213.8L51.8 213.4L52.5 212.9L53.3 212.4L54.1001 211.8L54.9 211.3L55.8 210.6L56.8 210L57.8 209.2L58.9 208.5L60.1001 207.6L61.3 206.7L62.7 205.7L64.1001 204.6L65.7 203.4L67.3 202.1L69.2 200.6L71.1001 199L73.3 197.3L75.6001 195.4L78.2 193.2L81 190.8L84.1001 188.2L87.6001 185.3L91.3 182L95.4 178.4L100 174.4L104.9 170.1L110.3 165.3L116.1 160.1L122.2 154.6L128.7 148.9L135.3 143L142 137L148.7 131.1L155.2 125.4L161.5 120L167.4 115L172.9 110.4L178.1 106.2L182.9 102.5L187.4 99.2L191.5 96.3L195.3 93.7L198.8 91.5L202.2 89.7L205.3 88.1L208.2 86.7L211.1 85.7L213.8 84.8L216.4 84.2L219 83.8L221.6 83.6H224.1L226.7 83.8L229.3 84.2L231.9 84.8L234.6 85.7L237.5 86.7L240.4 88.1L243.5 89.7L246.9 91.5L250.4 93.7L254.2 96.3L258.3 99.2L262.8 102.5L267.6 106.2L272.8 110.4L278.3 115L284.2 120L290.5 125.4L297 131.1L303.7 137L310.4 143L317 148.9L323.5 154.6L329.6 160.1L335.4 165.3L340.8 170.1L345.7 174.4L350.3 178.4L354.4 182L358.1 185.3L361.6 188.2L364.7 190.8L367.5 193.2L370.1 195.4L372.4 197.3L374.6 199L376.5 200.6L378.4 202.1L380 203.4L381.6 204.6L383 205.7L384.4 206.7L385.6 207.6L386.8 208.5L387.9 209.2L388.9 210L389.9 210.6L390.8 211.3L391.6 211.8L392.4 212.4L393.2 212.9L393.9 213.4L394.6 213.8L395.2 214.2L395.8 214.6L396.4 215L397 215.3L397.5 215.7L398 216L398.5 216.3L399 216.5L399.5 216.8L399.9 217L400.3 217.3L400.7 217.5L401.1 217.7L401.5 217.9L401.8 218.1L402.2 218.3L402.5 218.5L402.8 218.6L403.1 218.8L403.4 218.9L403.7 219.1L404 219.2L404.3 219.4L404.5 219.5L404.8 219.6L405 219.7L405.3 219.8L405.5 220L405.7 220.1L406 220.2L406.2 220.3H406.4L406.6 220.4L406.8 220.5L407 220.6L407.2 220.7L407.4 220.8H407.5L407.7 220.9L407.9 221H408.1L408.2 221.1L408.4 221.2H408.5L408.7 221.3L408.8 221.4H409L409.1 221.5H409.2L409.4 221.6H409.5L409.6 221.7H409.8L409.9 221.8H410H410.1L410.3 221.9H410.4L410.5 222H410.6H410.7L410.8 222.1H410.9H411L411.1 222.2H411.2H411.3L411.4 222.3H411.5H411.6L411.7 222.4H411.8H411.9L412 222.5H412.1H412.2H412.3V222.6H412.4H412.5H412.6L412.7 222.7H412.8H412.9H413L413.1 222.8H413.2H413.3L413.4 222.9H413.5H413.6H413.7L413.8 223H413.9H414H414.1L414.2 223.1H414.3H414.4H414.5H414.6V223.2H414.7H414.8H414.9H415L415.1 223.3H415.2H415.3H415.4H415.5V223.4H415.6H415.7H415.8H415.9H416V223.5H416.1H416.2H416.3H416.4H416.5L416.6 223.6H416.7H416.8H416.9H417H417.1V223.7H417.2H417.3H417.4H417.5H417.6H417.7H417.8V223.8H417.9H418H418.1H418.2H418.3H418.4H418.5H418.6V223.9H418.7H418.8H418.9H419H419.1H419.2H419.3H419.4H419.5H419.6H419.7V224H419.8H419.9H420H420.1H420.2H420.3H420.4H420.5H420.6H420.7H420.8H420.9" stroke="white"/>
<path d="M24.8 224H24.9H25H25.1H25.2H25.3H25.4H25.5H25.6H25.7H25.8V223.9H25.9H26H26.1H26.2H26.3H26.4H26.5H26.6H26.7V223.8H26.8H26.9H27H27.1H27.2H27.3H27.4V223.7H27.5H27.6H27.7H27.8H27.9H28V223.6H28.1H28.2H28.3H28.4H28.5H28.6V223.5H28.7H28.8H28.9H29L29.1 223.4H29.2H29.3H29.4H29.5V223.3H29.6H29.7H29.8H29.9L30 223.2H30.1H30.2H30.3V223.1H30.4H30.5H30.6H30.7V223H30.8H30.9H31L31.1 222.9H31.2H31.3H31.4V222.8H31.5H31.6H31.7V222.7H31.8H31.9H32L32.1 222.6H32.2H32.3L32.4 222.5H32.5H32.6L32.7 222.4H32.8H32.9L33 222.3H33.1001H33.2V222.2H33.3H33.4H33.5L33.6001 222.1H33.7L33.8 222H33.9H34L34.1001 221.9H34.2H34.3L34.4 221.8H34.5L34.6001 221.7H34.7H34.8L34.9 221.6H35L35.1001 221.5H35.2L35.3 221.4H35.4L35.6001 221.3H35.7L35.8 221.2H35.9L36.1001 221.1H36.2L36.3 221L36.5 220.9H36.6001L36.7 220.8L36.9 220.7H37L37.2 220.6L37.4 220.5L37.5 220.4H37.7L37.9 220.3L38 220.2L38.2 220.1L38.4 220L38.6001 219.9L38.8 219.8L39 219.7L39.2 219.6L39.4 219.5L39.6001 219.4L39.8 219.3L40.1001 219.1L40.3 219L40.5 218.9L40.8 218.7L41.1001 218.6L41.3 218.4L41.6001 218.3L41.9 218.1L42.2 217.9L42.5 217.8L42.8 217.6L43.1001 217.4L43.5 217.2L43.8 217L44.2 216.7L44.6001 216.5L45 216.2L45.4 216L45.8 215.7L46.3 215.4L46.8 215.1L47.2 214.7L47.8 214.4L48.3 214L48.9 213.6L49.5 213.2L50.1001 212.8L50.7 212.3L51.4 211.8L52.2 211.3L52.9 210.7L53.8 210.1L54.6001 209.4L55.5 208.7L56.5 207.9L57.6001 207.1L58.7 206.2L59.9 205.3L61.2 204.2L62.6001 203.1L64.1001 201.8L65.7 200.5L67.5 199L69.4 197.3L71.5 195.5L73.8 193.5L76.3 191.3L79.1001 188.9L82.1001 186.2L85.5 183.2L89.1001 179.9L93.2 176.2L97.6001 172.1L102.5 167.7L107.8 162.8L113.5 157.5L119.5 151.9L125.8 146.1L132.3 140L138.9 133.9L145.4 127.9L151.8 122.1L157.9 116.5L163.7 111.3L169.1 106.5L174 102.2L178.6 98.2L182.8 94.7L186.7 91.5L190.3 88.7L193.5 86.3L196.6 84.1L199.3 82.1L201.9 80.4L204.4 79L206.7 77.7L208.8 76.6L210.9 75.7L212.9 74.9L214.8 74.2L216.6 73.7L218.4 73.4L220.2 73.1L222 73H223.7L225.5 73.1L227.3 73.4L229.1 73.7L230.9 74.2L232.8 74.9L234.8 75.7L236.9 76.6L239 77.7L241.3 79L243.8 80.4L246.4 82.1L249.1 84.1L252.2 86.3L255.4 88.7L259 91.5L262.9 94.7L267.1 98.2L271.7 102.2L276.6 106.5L282 111.3L287.8 116.5L293.9 122.1L300.3 127.9L306.8 133.9L313.4 140L319.9 146.1L326.2 151.9L332.2 157.5L337.9 162.8L343.2 167.7L348.1 172.1L352.5 176.2L356.6 179.9L360.2 183.2L363.6 186.2L366.6 188.9L369.4 191.3L371.9 193.5L374.2 195.5L376.3 197.3L378.2 199L380 200.5L381.6 201.8L383.1 203.1L384.5 204.2L385.8 205.3L387 206.2L388.1 207.1L389.2 207.9L390.2 208.7L391.1 209.4L391.9 210.1L392.8 210.7L393.5 211.3L394.3 211.8L395 212.3L395.6 212.8L396.2 213.2L396.8 213.6L397.4 214L397.9 214.4L398.5 214.7L398.9 215.1L399.4 215.4L399.9 215.7L400.3 216L400.7 216.2L401.1 216.5L401.5 216.7L401.9 217L402.2 217.2L402.6 217.4L402.9 217.6L403.2 217.8L403.5 217.9L403.8 218.1L404.1 218.3L404.4 218.4L404.6 218.6L404.9 218.7L405.2 218.9L405.4 219L405.6 219.1L405.9 219.3L406.1 219.4L406.3 219.5L406.5 219.6L406.7 219.7L406.9 219.8L407.1 219.9L407.3 220L407.5 220.1L407.7 220.2L407.8 220.3L408 220.4H408.2L408.3 220.5L408.5 220.6L408.7 220.7H408.8L409 220.8L409.1 220.9H409.2L409.4 221L409.5 221.1H409.6L409.8 221.2H409.9L410 221.3H410.1L410.3 221.4H410.4L410.5 221.5H410.6L410.7 221.6H410.8L410.9 221.7H411H411.1L411.2 221.8H411.3L411.4 221.9H411.5H411.6L411.7 222H411.8H411.9L412 222.1H412.1L412.2 222.2H412.3H412.4H412.5V222.3H412.6H412.7L412.8 222.4H412.9H413L413.1 222.5H413.2H413.3L413.4 222.6H413.5H413.6L413.7 222.7H413.8H413.9H414V222.8H414.1H414.2H414.3V222.9H414.4H414.5H414.6L414.7 223H414.8H414.9H415V223.1H415.1H415.2H415.3H415.4V223.2H415.5H415.6H415.7L415.8 223.3H415.9H416H416.1H416.2V223.4H416.3H416.4H416.5H416.6L416.7 223.5H416.8H416.9H417H417.1V223.6H417.2H417.3H417.4H417.5H417.6H417.7V223.7H417.8H417.9H418H418.1H418.2H418.3V223.8H418.4H418.5H418.6H418.7H418.8H418.9H419V223.9H419.1H419.2H419.3H419.4H419.5H419.6H419.7H419.8H419.9V224H420H420.1H420.2H420.3H420.4H420.5H420.6H420.7H420.8H420.9" stroke="white"/>
<path d="M24.8 224H24.9H25H25.1H25.2H25.3H25.4H25.5H25.6V223.9H25.7H25.8H25.9H26H26.1H26.2H26.3H26.4V223.8H26.5H26.6H26.7H26.8H26.9H27H27.1V223.7H27.2H27.3H27.4H27.5H27.6V223.6H27.7H27.8H27.9H28H28.1V223.5H28.2H28.3H28.4H28.5H28.6V223.4H28.7H28.8H28.9H29V223.3H29.1H29.2H29.3H29.4V223.2H29.5H29.6H29.7V223.1H29.8H29.9H30H30.1V223H30.2H30.3H30.4V222.9H30.5H30.6H30.7L30.8 222.8H30.9H31L31.1 222.7H31.2H31.3L31.4 222.6H31.5H31.6V222.5H31.7H31.8L31.9 222.4H32H32.1L32.2 222.3H32.3H32.4L32.5 222.2H32.6H32.7V222.1H32.8H32.9V222H33H33.1001H33.2V221.9H33.3H33.4L33.5 221.8H33.6001L33.7 221.7H33.8L33.9 221.6H34L34.1001 221.5H34.2H34.3L34.4 221.4H34.5L34.6001 221.3H34.7L34.8 221.2H34.9L35 221.1H35.1001L35.2 221H35.4L35.5 220.9L35.6001 220.8H35.7L35.8 220.7H36L36.1001 220.6L36.2 220.5L36.4 220.4H36.5L36.7 220.3L36.8 220.2L37 220.1H37.1001L37.3 220L37.5 219.9L37.6001 219.8L37.8 219.7L38 219.6L38.2 219.5L38.3 219.4L38.5 219.3L38.7 219.2L38.9 219L39.1001 218.9L39.4 218.8L39.6001 218.7L39.8 218.5L40 218.4L40.3 218.2L40.5 218.1L40.8 217.9L41.1001 217.7L41.3 217.6L41.6001 217.4L41.9 217.2L42.2 217L42.5 216.8L42.9 216.6L43.2 216.3L43.6001 216.1L43.9 215.8L44.3 215.6L44.7 215.3L45.1001 215L45.6001 214.7L46 214.4L46.5 214L47 213.6L47.5 213.3L48.1001 212.9L48.6001 212.4L49.3 212L49.9 211.5L50.6001 210.9L51.3 210.4L52 209.8L52.8 209.2L53.7 208.5L54.6001 207.7L55.5 207L56.6001 206.1L57.7 205.2L58.8 204.2L60.1001 203.1L61.5 202L62.9 200.7L64.5 199.3L66.3 197.8L68.2 196.1L70.2 194.2L72.5 192.2L75 190L77.7 187.5L80.7 184.8L84 181.7L87.6001 178.3L91.6001 174.6L96 170.5L100.8 166L106 161.1L111.6 155.7L117.6 150.1L123.9 144.1L130.3 138L136.8 131.9L143.3 125.8L149.6 119.8L155.6 114.2L161.2 108.9L166.5 104L171.4 99.6L175.9 95.5L180 91.9L183.8 88.6L187.2 85.7L190.3 83L193.2 80.7L195.8 78.6L198.2 76.8L200.5 75.1L202.6 73.6L204.6 72.3L206.4 71.2L208.1 70.1L209.8 69.2L211.3 68.5L212.8 67.8L214.3 67.2L215.7 66.7L217 66.3L218.4 66L219.7 65.8L220.9 65.6L222.2 65.5H223.5L224.8 65.6L226 65.8L227.3 66L228.7 66.3L230 66.7L231.4 67.2L232.9 67.8L234.4 68.5L235.9 69.2L237.6 70.1L239.3 71.2L241.1 72.3L243.1 73.6L245.2 75.1L247.5 76.8L249.9 78.6L252.5 80.7L255.4 83L258.5 85.7L261.9 88.6L265.7 91.9L269.8 95.5L274.3 99.6L279.2 104L284.5 108.9L290.1 114.2L296.1 119.8L302.4 125.8L308.9 131.9L315.4 138L321.8 144.1L328.1 150.1L334.1 155.7L339.7 161.1L344.9 166L349.7 170.5L354.1 174.6L358.1 178.3L361.7 181.7L365 184.8L368 187.5L370.7 190L373.2 192.2L375.5 194.2L377.5 196.1L379.4 197.8L381.2 199.3L382.8 200.7L384.2 202L385.6 203.1L386.9 204.2L388 205.2L389.1 206.1L390.2 207L391.1 207.7L392 208.5L392.9 209.2L393.7 209.8L394.4 210.4L395.1 210.9L395.8 211.5L396.4 212L397.1 212.4L397.6 212.9L398.2 213.3L398.7 213.6L399.2 214L399.7 214.4L400.1 214.7L400.6 215L401 215.3L401.4 215.6L401.8 215.8L402.1 216.1L402.5 216.3L402.8 216.6L403.2 216.8L403.5 217L403.8 217.2L404.1 217.4L404.4 217.6L404.6 217.7L404.9 217.9L405.2 218.1L405.4 218.2L405.7 218.4L405.9 218.5L406.1 218.7L406.3 218.8L406.6 218.9L406.8 219L407 219.2L407.2 219.3L407.4 219.4L407.5 219.5L407.7 219.6L407.9 219.7L408.1 219.8L408.2 219.9L408.4 220L408.6 220.1H408.7L408.9 220.2L409 220.3L409.2 220.4H409.3L409.5 220.5L409.6 220.6L409.7 220.7H409.9L410 220.8H410.1L410.2 220.9L410.3 221H410.5L410.6 221.1H410.7L410.8 221.2H410.9L411 221.3H411.1L411.2 221.4H411.3L411.4 221.5H411.5H411.6L411.7 221.6H411.8L411.9 221.7H412L412.1 221.8H412.2L412.3 221.9H412.4H412.5V222H412.6H412.7H412.8V222.1H412.9H413V222.2H413.1H413.2L413.3 222.3H413.4H413.5L413.6 222.4H413.7H413.8L413.9 222.5H414H414.1V222.6H414.2H414.3L414.4 222.7H414.5H414.6L414.7 222.8H414.8H414.9L415 222.9H415.1H415.2H415.3V223H415.4H415.5H415.6V223.1H415.7H415.8H415.9H416V223.2H416.1H416.2H416.3V223.3H416.4H416.5H416.6H416.7V223.4H416.8H416.9H417H417.1V223.5H417.2H417.3H417.4H417.5H417.6V223.6H417.7H417.8H417.9H418H418.1V223.7H418.2H418.3H418.4H418.5H418.6V223.8H418.7H418.8H418.9H419H419.1H419.2H419.3V223.9H419.4H419.5H419.6H419.7H419.8H419.9H420H420.1V224H420.2H420.3H420.4H420.5H420.6H420.7H420.8H420.9" stroke="white"/>
<path d="M227.5 19.3L222.9 2M222.9 2L218.3 19.3M222.9 2V446.1" stroke="white"/>
<path d="M427.6 228.6L444.9 224M444.9 224L427.6 219.4M444.9 224H0.800049" stroke="white"/>
<path d="M222.9 24.7L422.2 224" stroke="white"/>
<path d="M222.9 24.7L23.5 224" stroke="white"/>
<path d="M222.9 423.4L422.2 224" stroke="white"/>
<path d="M222.9 423.4L23.5 224" stroke="white"/>
<path d="M319.453 153.837L311.71 149.347L316.2 157.09" stroke="white"/>
<path d="M421.188 226.422C422.526 226.422 423.61 225.337 423.61 224C423.61 222.663 422.526 221.578 421.188 221.578C419.851 221.578 418.767 222.663 418.767 224C418.767 225.337 419.851 226.422 421.188 226.422Z" fill="white" stroke="white"/>
<path d="M222.849 425.422C224.187 425.422 225.271 424.338 225.271 423C225.271 421.663 224.187 420.579 222.849 420.579C221.512 420.579 220.428 421.663 220.428 423C220.428 424.338 221.512 425.422 222.849 425.422Z" fill="white" stroke="white"/>
<path d="M23.9081 226.512C25.2455 226.512 26.3296 225.428 26.3296 224.091C26.3296 222.754 25.2455 221.669 23.9081 221.669C22.5707 221.669 21.4866 222.754 21.4866 224.091C21.4866 225.428 22.5707 226.512 23.9081 226.512Z" fill="white" stroke="white"/>
</svg>
